<svg xmlns="http://www.w3.org/2000/svg" width="26" height="26"><path fill="#bf883b" d="M17.65 9.964l-1.148 3.929h-5.55l-.893-3.929zm-6.967 4.584h6.071c.15 0 .281-.097.322-.238l1.34-4.583a.322.322 0 00-.055-.287.338.338 0 00-.267-.13H9.91l-.24-1.054A.333.333 0 009.345 8h-2.01A.331.331 0 007 8.327c0 .181.15.328.335.328h1.74l1.209 5.319a.983.983 0 00-.605.901c0 .542.45.982 1.004.982h6.071a.331.331 0 00.335-.327.332.332 0 00-.335-.328h-6.071a.332.332 0 01-.335-.327c0-.18.15-.327.334-.327zM11.647 16.574a.363.363 0 11-.001.726.363.363 0 010-.726zm-1.077.357a1.073 1.073 0 002.143 0 1.073 1.073 0 00-2.143 0zM15.937 16.574a.363.363 0 11-.001.726.363.363 0 010-.726zm-1.077.357a1.073 1.073 0 002.143 0 1.073 1.073 0 00-2.143 0z"/><g><path fill="#bf883b" d="M13 25C6.383 25 1 19.617 1 13S6.383 1 13 1s12 5.383 12 12-5.383 12-12 12zm0-25C5.832 0 0 5.832 0 13s5.832 13 13 13 13-5.832 13-13S20.168 0 13 0z"/></g></svg>