<svg xmlns="http://www.w3.org/2000/svg" width="17" height="20"><path d="M11.375 7.59c-.19 0-.345.207-.345.462v8.731c0 .255.154.462.345.462.19 0 .345-.207.345-.462V8.052c0-.255-.155-.462-.345-.462zM5.175 7.59c-.19 0-.345.207-.345.462v8.731c0 .255.154.462.345.462.19 0 .345-.207.345-.462V8.052c0-.255-.155-.462-.345-.462z"/><path d="M1.824 3.372h12.914c.475 0 .86.378.86.844a.851.851 0 01-.86.843H1.824a.851.851 0 01-.86-.843c0-.466.385-.844.86-.844zM5.22 1.85a.893.893 0 01.271-.65.929.929 0 01.665-.263h4.238a.929.929 0 01.664.262.893.893 0 01.271.651v.586H5.221zm7.57 17.203H3.76c-.816 0-1.451-.687-1.451-1.568V5.995h11.932v11.49c0 .88-.635 1.568-1.451 1.568zM1.356 5.954v11.54c0 .682.254 1.323.7 1.782A2.37 2.37 0 003.761 20h9.03a2.371 2.371 0 001.705-.724c.445-.46.7-1.1.7-1.782V5.954a1.79 1.79 0 001.34-1.96c-.118-.892-.892-1.558-1.808-1.558h-2.443V1.85a1.823 1.823 0 00-.55-1.313A1.894 1.894 0 0010.394 0H6.157a1.894 1.894 0 00-1.34.537c-.355.348-.553.82-.55 1.313v.586H1.823c-.915 0-1.689.666-1.808 1.557a1.79 1.79 0 001.34 1.961z"/><path d="M7.935 7.59c-.19 0-.345.207-.345.462v8.731c0 .255.154.462.345.462.19 0 .345-.207.345-.462V8.052c0-.255-.155-.462-.345-.462z"/></svg>