<svg xmlns="http://www.w3.org/2000/svg" width="27" height="20"><path d="M16.548 6.83a.558.558 0 00-.782 0 .542.542 0 000 .772c.626.618.972 1.441.972 2.317 0 1.807-1.489 3.278-3.318 3.278-.887 0-1.72-.341-2.346-.96a.558.558 0 00-.782 0 .542.542 0 000 .772 4.417 4.417 0 003.128 1.28c2.44 0 4.424-1.96 4.424-4.37a4.31 4.31 0 00-1.296-3.09zM14.478 5.787a4.594 4.594 0 00-.789-.077c-2.498 0-4.529 2.006-4.529 4.473 0 .266.033.526.08.78a.565.565 0 00.655.452.56.56 0 00.458-.647 3.203 3.203 0 01-.06-.585c0-1.85 1.523-3.355 3.396-3.355.204 0 .4.026.592.06.302.06.602-.15.656-.453a.56.56 0 00-.459-.648z"/><path d="M26.865 9.595c-.126-.146-3.139-3.606-7.295-5.724a.562.562 0 00-.751.236.543.543 0 00.24.739c3.201 1.63 5.759 4.174 6.633 5.103-1.328 1.415-6.553 6.575-12.062 6.575-1.87 0-3.753-.444-5.601-1.32a.56.56 0 00-.743.255.542.542 0 00.26.73c2 .95 4.047 1.43 6.084 1.43 6.863 0 12.98-7.017 13.236-7.316a.54.54 0 000-.708zM16.98 3.012c-1.265-.42-2.492-.632-3.647-.632C6.488 2.38.388 9.406.131 9.705a.543.543 0 00-.03.669c.076.108 1.912 2.683 5.096 4.771a.552.552 0 00.769-.155.543.543 0 00-.156-.759 20.213 20.213 0 01-4.537-4.142c1.28-1.37 6.526-6.612 12.06-6.612 1.035 0 2.143.193 3.292.574a.55.55 0 10.354-1.04z"/><path d="M23.465.163a.568.568 0 00-.795 0L3.545 19.053a.551.551 0 000 .785.569.569 0 00.795 0L23.465.948a.551.551 0 000-.785z"/></svg>