<svg id="Layer_1" data-name="Layer 1" xmlns="http://www.w3.org/2000/svg" viewBox="0 0 383.48 320.98"><defs><style>.cls-1{fill:#58595b;}</style></defs><path class="cls-1" d="M10.16,194.09H34.09a35.73,35.73,0,0,1,13.78,2.54,30.27,30.27,0,0,1,10.43,7,30.82,30.82,0,0,1,6.61,10.57A37,37,0,0,1,67.2,227.4a40.49,40.49,0,0,1-2.15,13.45,30.14,30.14,0,0,1-6.32,10.67,28.92,28.92,0,0,1-10.19,7,35,35,0,0,1-13.69,2.53H10.16Zm25.18,60A27.68,27.68,0,0,0,46,252.16a21.31,21.31,0,0,0,7.81-5.48,24.15,24.15,0,0,0,4.81-8.48,34.06,34.06,0,0,0,1.65-10.85,30.58,30.58,0,0,0-1.75-10.51,23.82,23.82,0,0,0-5-8.29,23.3,23.3,0,0,0-8.06-5.47,28.06,28.06,0,0,0-10.87-2H18.16v53Z"/><path class="cls-1" d="M102.16,201.09v21h33v7h-33v24h36v8h-43v-67h43v7Z"/><path class="cls-1" d="M184.09,254.67a19.9,19.9,0,0,0,5.32-.72,15.47,15.47,0,0,0,4.65-2.13,11,11,0,0,0,3.24-3.48,9.54,9.54,0,0,0,1.21-4.89,9.21,9.21,0,0,0-1.31-5,12.45,12.45,0,0,0-3.67-3.67,28,28,0,0,0-5.67-2.86q-3.29-1.26-7.16-2.61c-2.84-1-5.45-2-7.84-3a26.08,26.08,0,0,1-6.19-3.78,15.33,15.33,0,0,1-4.07-5.22,17.24,17.24,0,0,1-1.45-7.41,16.32,16.32,0,0,1,5.34-12,20.75,20.75,0,0,1,6.86-4,28.33,28.33,0,0,1,9.87-1.55,26.56,26.56,0,0,1,7.89,1.16,21.76,21.76,0,0,1,6.63,3.34,20,20,0,0,1,7.64,12.24h-7.74a10.92,10.92,0,0,0-4.84-6.92,17,17,0,0,0-9.58-2.56,19.28,19.28,0,0,0-6.34.92,13.81,13.81,0,0,0-4.4,2.37,9.68,9.68,0,0,0-2.62,3.29,8.36,8.36,0,0,0-.87,3.58,9,9,0,0,0,1.12,4.69,10.58,10.58,0,0,0,3.09,3.29,21.81,21.81,0,0,0,4.7,2.47q2.7,1.07,5.9,2.13,5,1.74,9.15,3.53a32.31,32.31,0,0,1,7.11,4.16,17.21,17.21,0,0,1,4.64,5.52,16,16,0,0,1,1.65,7.5,17.07,17.07,0,0,1-1.86,8.08,17.75,17.75,0,0,1-5,5.95,22.1,22.1,0,0,1-7.18,3.63,28.77,28.77,0,0,1-8.37,1.21,31,31,0,0,1-8.91-1.21,23.42,23.42,0,0,1-7.11-3.39,19,19,0,0,1-5-5.27,18.6,18.6,0,0,1-2.66-7h7.74a10.85,10.85,0,0,0,5.13,7.12Q177.13,254.67,184.09,254.67Z"/><path class="cls-1" d="M245.16,201.09v21h33v7h-33v24h35v8h-43v-67h44v7Z"/><path class="cls-1" d="M304.37,227.29A34.32,34.32,0,0,1,307,213.85a34.57,34.57,0,0,1,18.06-18.49,33.48,33.48,0,0,1,26.53,0,34.67,34.67,0,0,1,10.84,7.46,35.77,35.77,0,0,1,7.32,11,34.9,34.9,0,0,1,0,26.92,35.66,35.66,0,0,1-7.32,11,33.9,33.9,0,0,1-10.84,7.42,34.05,34.05,0,0,1-26.53,0,34,34,0,0,1-10.79-7.42,35,35,0,0,1-7.27-11A34.16,34.16,0,0,1,304.37,227.29Zm7.8,0A27.49,27.49,0,0,0,314.24,238a28.18,28.18,0,0,0,5.59,8.65,25,25,0,0,0,8.28,5.77A25.83,25.83,0,0,0,357,246.61a27.92,27.92,0,0,0,5.63-8.65A27.93,27.93,0,0,0,357,207.91a26.66,26.66,0,0,0-8.33-5.76,25.89,25.89,0,0,0-20.52,0,26,26,0,0,0-8.28,5.76,27.68,27.68,0,0,0-7.66,19.33Z"/><path class="cls-1" d="M13.16,304.09h-3v-25h9.51a13,13,0,0,1,3.34.42,7.12,7.12,0,0,1,2.72,1.32,6.53,6.53,0,0,1,1.84,2.37,8.36,8.36,0,0,1,.68,3.53,7.9,7.9,0,0,1-.65,3.34,6.12,6.12,0,0,1-1.79,2.3,7.52,7.52,0,0,1-2.71,1.31,13.33,13.33,0,0,1-3.36.41H13.16Zm6.91-12a9.51,9.51,0,0,0,2.25-.26,5.08,5.08,0,0,0,1.84-.83,4.19,4.19,0,0,0,1.25-1.53,5.24,5.24,0,0,0,.46-2.32,5.65,5.65,0,0,0-.44-2.34,4.11,4.11,0,0,0-1.23-1.57,5.33,5.33,0,0,0-1.86-.87,9.62,9.62,0,0,0-2.34-.28H13.16v10Z"/><path class="cls-1" d="M29.42,294.09a5,5,0,0,1,2-3.22,6.74,6.74,0,0,1,4.11-1.19A6.56,6.56,0,0,1,40,291.1a12.59,12.59,0,0,1,2.12,3.76v9.23H39.75l-.18-2.19a5.81,5.81,0,0,1-1.8,1.67,6.17,6.17,0,0,1-3.21.7,7.15,7.15,0,0,1-2.12-.3,5.16,5.16,0,0,1-1.69-.9,4.18,4.18,0,0,1-1.55-3.37q0-4.6,6.84-4.61h3.12v-.24a3.15,3.15,0,0,0-1-2.17,3.87,3.87,0,0,0-2.71-.82,4.29,4.29,0,0,0-2.29.55A2.5,2.5,0,0,0,32,294.09Zm5.24,7.9a5,5,0,0,0,3.27-1,3.75,3.75,0,0,0,1.23-3.06v-.82h-3.5a6.21,6.21,0,0,0-3.23.63,2.24,2.24,0,0,0-.11,3.64A3.91,3.91,0,0,0,34.66,302Z"/><path class="cls-1" d="M44.16,290.09h3.39l.5-5h2.11v5h4v2h-4v7.59a2.47,2.47,0,0,0,.59,2.05,3,3,0,0,0,1.84.48,6.91,6.91,0,0,0,1.57-.21v2.2a8.6,8.6,0,0,1-2.51.35,6.66,6.66,0,0,1-1.75-.23,3.47,3.47,0,0,1-1.42-.75,3.83,3.83,0,0,1-1-1.39,5.51,5.51,0,0,1-.36-2.13v-8h-3Z"/><path class="cls-1" d="M58,284.36a1.75,1.75,0,0,1,.5-1.27,1.69,1.69,0,0,1,1.29-.52,1.76,1.76,0,0,1,1.28.52,1.75,1.75,0,0,1,0,2.53,1.76,1.76,0,0,1-1.28.52,1.69,1.69,0,0,1-1.29-.52A1.76,1.76,0,0,1,58,284.36Zm.14,5.73h3v14h-3Z"/><path class="cls-1" d="M70.59,302.82a4.18,4.18,0,0,0,2.06-.48,1.59,1.59,0,0,0,.86-1.49,1.57,1.57,0,0,0-.26-.93,2.52,2.52,0,0,0-.74-.66,5.7,5.7,0,0,0-1.11-.47c-.42-.13-.89-.25-1.41-.37a10.7,10.7,0,0,1-1.74-.55,5.88,5.88,0,0,1-1.44-.82,3.84,3.84,0,0,1-1-1.2,3.84,3.84,0,0,1,0-3.18,3.54,3.54,0,0,1,1-1.27,4.63,4.63,0,0,1,1.57-.86,6.6,6.6,0,0,1,2.12-.32,6.1,6.1,0,0,1,2.13.34,5.13,5.13,0,0,1,1.6.88,4.24,4.24,0,0,1,1.06,1.23,4.8,4.8,0,0,1,.53,1.42H73.26a2.38,2.38,0,0,0-.81-1.18,3.77,3.77,0,0,0-3.87,0,1.64,1.64,0,0,0-.66,1.33,1.5,1.5,0,0,0,.84,1.41,10.39,10.39,0,0,0,2.36.85,12.31,12.31,0,0,1,1.79.54,6.35,6.35,0,0,1,1.57.84,4.24,4.24,0,0,1,1.09,1.23,4.07,4.07,0,0,1,0,3.56,3.8,3.8,0,0,1-1.16,1.27,5.82,5.82,0,0,1-1.71.77,7.58,7.58,0,0,1-2.05.26,6,6,0,0,1-3.75-1.09,4.4,4.4,0,0,1-1.74-2.78h2.39a2.18,2.18,0,0,0,.91,1.2A3.71,3.71,0,0,0,70.59,302.82Z"/><path class="cls-1" d="M84.16,302.82a4.18,4.18,0,0,0,2.06-.48,1.59,1.59,0,0,0,.86-1.49,1.57,1.57,0,0,0-.26-.93,2.52,2.52,0,0,0-.74-.66,5.7,5.7,0,0,0-1.11-.47c-.42-.13-.89-.25-1.41-.37a10.7,10.7,0,0,1-1.74-.55,5.88,5.88,0,0,1-1.44-.82,3.84,3.84,0,0,1-1-1.2,3.84,3.84,0,0,1,0-3.18,3.54,3.54,0,0,1,1-1.27,4.63,4.63,0,0,1,1.57-.86,6.6,6.6,0,0,1,2.12-.32,6.1,6.1,0,0,1,2.13.34,5.13,5.13,0,0,1,1.6.88,4.24,4.24,0,0,1,1.06,1.23,4.8,4.8,0,0,1,.53,1.42H86.83a2.38,2.38,0,0,0-.81-1.18,3.77,3.77,0,0,0-3.87,0,1.64,1.64,0,0,0-.66,1.33,1.5,1.5,0,0,0,.84,1.41,10.39,10.39,0,0,0,2.36.85,12.31,12.31,0,0,1,1.79.54,6.35,6.35,0,0,1,1.57.84,4.24,4.24,0,0,1,1.09,1.23,4.07,4.07,0,0,1,0,3.56A3.8,3.8,0,0,1,88,303.93a5.82,5.82,0,0,1-1.71.77,7.58,7.58,0,0,1-2,.26,6,6,0,0,1-3.75-1.09,4.4,4.4,0,0,1-1.74-2.78H81.1a2.18,2.18,0,0,0,.91,1.2A3.71,3.71,0,0,0,84.16,302.82Z"/><path class="cls-1" d="M94.59,298.09A4.52,4.52,0,0,0,96,301.25a5.18,5.18,0,0,0,3.49,1.1,4.59,4.59,0,0,0,2.67-.69,3.74,3.74,0,0,0,1.33-1.57h2.57a6.15,6.15,0,0,1-2.22,3.23,7,7,0,0,1-4.39,1.32,7.68,7.68,0,0,1-3-.59,7.12,7.12,0,0,1-2.36-1.59,6.94,6.94,0,0,1-1.52-2.36,8,8,0,0,1-.53-2.92,8.13,8.13,0,0,1,.53-2.92,7.18,7.18,0,0,1,6.79-4.58,6.88,6.88,0,0,1,2.91.59,6.49,6.49,0,0,1,2.21,1.59,7.17,7.17,0,0,1,1.41,2.26,4.22,4.22,0,0,1,.29,2.59v.73a.67.67,0,0,1,.14.65ZM99.44,292a4.53,4.53,0,0,0-3.23,1.15,5,5,0,0,0-1.51,3h9.1a4.58,4.58,0,0,0-.34-1.53,4,4,0,0,0-.86-1.33,4.07,4.07,0,0,0-1.35-.91A4.75,4.75,0,0,0,99.44,292Z"/><path class="cls-1" d="M110.16,290.09h2.75l.25,2,.74-.71a5.41,5.41,0,0,1,1-.71,6.65,6.65,0,0,1,1.33-.56,5.94,5.94,0,0,1,1.77-.23c.2,0,.39,0,.6,0a3.81,3.81,0,0,1,.59.08v2.43a5,5,0,0,0-1-.11,5.86,5.86,0,0,0-1.72.24,5.79,5.79,0,0,0-1.4.6A6.65,6.65,0,0,0,114,294c-.31.3-.57.58-.79.84v9.29h-3Z"/><path class="cls-1" d="M121.55,284.36a1.75,1.75,0,0,1,.5-1.27,1.68,1.68,0,0,1,1.28-.52,1.77,1.77,0,0,1,1.29.52,1.75,1.75,0,0,1,0,2.53,1.77,1.77,0,0,1-1.29.52,1.68,1.68,0,0,1-1.28-.52A1.76,1.76,0,0,1,121.55,284.36Zm.61,5.73h3v14h-3Z"/><path class="cls-1" d="M131.44,298.09a4.49,4.49,0,0,0,1.45,3.16,5.13,5.13,0,0,0,3.48,1.1,4.65,4.65,0,0,0,2.68-.69,3.78,3.78,0,0,0,1.32-1.57h2.57a6.13,6.13,0,0,1-2.21,3.23,7,7,0,0,1-4.4,1.32,7.72,7.72,0,0,1-3.05-.59,7.22,7.22,0,0,1-2.36-1.59,6.92,6.92,0,0,1-1.51-2.36,7.81,7.81,0,0,1-.54-2.92,7.93,7.93,0,0,1,.54-2.92,7.18,7.18,0,0,1,6.78-4.58,6.88,6.88,0,0,1,2.91.59,6.63,6.63,0,0,1,2.22,1.59,7.55,7.55,0,0,1,1.41,2.26,5.83,5.83,0,0,1,.43,2.59v.73a1.15,1.15,0,0,1,0,.65ZM136.3,292a4.51,4.51,0,0,0-3.23,1.15,4.91,4.91,0,0,0-1.52,3h9.1a4.35,4.35,0,0,0-.34-1.53,3.93,3.93,0,0,0-.85-1.33,4.11,4.11,0,0,0-1.36-.91A4.69,4.69,0,0,0,136.3,292Z"/><path class="cls-1" d="M153.5,297.76a5.8,5.8,0,0,1,.43-2.26,7.19,7.19,0,0,1,1.15-1.84,9.68,9.68,0,0,1,1.66-1.52c.62-.45,1.27-.88,1.95-1.28-.39-.35-.8-.74-1.23-1.19a9.52,9.52,0,0,1-1.15-1.45,8.79,8.79,0,0,1-.84-1.68,5.38,5.38,0,0,1-.33-1.87,4.6,4.6,0,0,1,.39-1.75,5.35,5.35,0,0,1,1.23-1.77,6.8,6.8,0,0,1,2.14-1.37,8.32,8.32,0,0,1,3.18-.54,8.12,8.12,0,0,1,2.92.48,6.06,6.06,0,0,1,2.07,1.25,5.22,5.22,0,0,1,1.22,1.81,5.38,5.38,0,0,1,.41,2.1,4.5,4.5,0,0,1-.48,2.11,6.5,6.5,0,0,1-1.29,1.68,11,11,0,0,1-1.83,1.4c-.69.44-1.4.85-2.13,1.25l6.82,6.58a8.15,8.15,0,0,0,1-2.24,10,10,0,0,0,.35-2.7v-2.87h3V293a11.68,11.68,0,0,1-.6,3.77,11.55,11.55,0,0,1-1.7,3.2l4.29,4.16h-3.74l-2.34-2.2a9.9,9.9,0,0,1-3.24,1.85,12.81,12.81,0,0,1-4.36.67,11.46,11.46,0,0,1-3.65-.55,9.15,9.15,0,0,1-2.82-1.45,6.86,6.86,0,0,1-1.84-2.12A5.19,5.19,0,0,1,153.5,297.76Zm9.4,4.45a7.32,7.32,0,0,0,2.95-.55,6.55,6.55,0,0,0,2.16-1.52l-6.86-7.43a12.94,12.94,0,0,0-2.59,2.18,4.36,4.36,0,0,0-1.09,3,3.53,3.53,0,0,0,.43,1.68,4.51,4.51,0,0,0,1.18,1.37,5.86,5.86,0,0,0,1.73.93A6.27,6.27,0,0,0,162.9,302.21Zm-1.25-12.78c.5-.31,1-.64,1.52-1a11,11,0,0,0,1.36-1.09,6,6,0,0,0,1-1.22,2.71,2.71,0,0,0,.38-1.39,3.82,3.82,0,0,0-.2-1.2,2.93,2.93,0,0,0-.61-1.05,3,3,0,0,0-1-.75,3.57,3.57,0,0,0-1.49-.29,4.12,4.12,0,0,0-1.6.29,3.2,3.2,0,0,0-1.11.75,3.27,3.27,0,0,0-.64,1,2.74,2.74,0,0,0-.22,1,4.84,4.84,0,0,0,.67,2.48A10.91,10.91,0,0,0,161.65,289.43Z"/><path class="cls-1" d="M185.27,291.69a13.39,13.39,0,0,1,1-5.25,13.77,13.77,0,0,1,2.83-4.32,13.27,13.27,0,0,1,4.21-2.91,12.71,12.71,0,0,1,5.22-1.08,13.68,13.68,0,0,1,4.38.68,13.17,13.17,0,0,1,3.62,1.86,12.41,12.41,0,0,1,2.75,2.85,14.22,14.22,0,0,1,1.79,3.57h-3.28a9.13,9.13,0,0,0-1.28-2.29,9.4,9.4,0,0,0-2-1.94,9.63,9.63,0,0,0-2.66-1.34,10.56,10.56,0,0,0-3.26-.49,10,10,0,0,0-4.06.83,10.23,10.23,0,0,0-5.46,5.63,10.94,10.94,0,0,0-.79,4.2,11.07,11.07,0,0,0,.79,4.21,10.18,10.18,0,0,0,5.46,5.65,10,10,0,0,0,4.06.83,10.37,10.37,0,0,0,3.3-.51,9.86,9.86,0,0,0,2.71-1.37,9.08,9.08,0,0,0,2-2,8.24,8.24,0,0,0,1.24-2.41h3.28a12.13,12.13,0,0,1-1.73,3.67,12.31,12.31,0,0,1-2.79,2.88,12.63,12.63,0,0,1-3.67,1.89,14.07,14.07,0,0,1-4.42.67,13,13,0,0,1-9.43-3.95A13.75,13.75,0,0,1,186.3,297,13.39,13.39,0,0,1,185.27,291.69Z"/><path class="cls-1" d="M214.16,281.09h3V291.8a8.43,8.43,0,0,1,2-1.44,6.72,6.72,0,0,1,3.24-.71,6.48,6.48,0,0,1,2.33.41,4.9,4.9,0,0,1,1.82,1.18,5.17,5.17,0,0,1,1.17,1.86,6.84,6.84,0,0,1,.42,2.47v8.52h-3v-8.21a4.46,4.46,0,0,0-.89-3,3.25,3.25,0,0,0-2.62-1,4.67,4.67,0,0,0-2.75.78,7.37,7.37,0,0,0-1.74,1.68v9.75h-3Z"/><path class="cls-1" d="M231.82,297.18a7.74,7.74,0,0,1,.56-2.92,7.29,7.29,0,0,1,3.9-4,7.7,7.7,0,0,1,5.91,0,7.44,7.44,0,0,1,2.34,1.6,7.27,7.27,0,0,1,1.56,2.39,7.74,7.74,0,0,1,.56,2.92,7.63,7.63,0,0,1-.56,2.92,7,7,0,0,1-1.56,2.36,7.58,7.58,0,0,1-2.34,1.59,7.47,7.47,0,0,1-8.25-1.59,7,7,0,0,1-1.56-2.36A7.63,7.63,0,0,1,231.82,297.18Zm2.68,0a5.58,5.58,0,0,0,.36,2.05,4.56,4.56,0,0,0,1,1.58,4.72,4.72,0,0,0,1.5,1,4.94,4.94,0,0,0,3.75,0,4.56,4.56,0,0,0,2.51-2.61,6,6,0,0,0,0-4.09,4.76,4.76,0,0,0-1-1.62,4.43,4.43,0,0,0-1.51-1,4.82,4.82,0,0,0-3.75,0,4.59,4.59,0,0,0-1.5,1,4.74,4.74,0,0,0-1,1.62A5.61,5.61,0,0,0,234.5,297.18Z"/><path class="cls-1" d="M257.1,292.61a4.76,4.76,0,0,0-1.89.37,4.46,4.46,0,0,0-1.5,1,4.6,4.6,0,0,0-1,1.58,5.7,5.7,0,0,0-.35,2,5.4,5.4,0,0,0,.37,2,4.88,4.88,0,0,0,1,1.58,4.68,4.68,0,0,0,1.49,1,4.76,4.76,0,0,0,1.87.37,4.61,4.61,0,0,0,2.66-.72,3.62,3.62,0,0,0,1.43-1.77h2.59A6.07,6.07,0,0,1,263,302a5.53,5.53,0,0,1-1.45,1.52,7,7,0,0,1-2,1,7.91,7.91,0,0,1-2.42.35,7.5,7.5,0,0,1-3-.57,7.4,7.4,0,0,1-2.32-1.56,6.88,6.88,0,0,1-1.52-2.31,7.69,7.69,0,0,1,0-5.71,7.07,7.07,0,0,1,3.82-3.92,7.38,7.38,0,0,1,2.94-.58,7.85,7.85,0,0,1,2.41.37,6.8,6.8,0,0,1,2,1,5.85,5.85,0,0,1,1.45,1.53,6,6,0,0,1,.82,1.94h-2.62a3.68,3.68,0,0,0-1.42-1.76A4.41,4.41,0,0,0,257.1,292.61Z"/><path class="cls-1" d="M266.11,297.18a7.74,7.74,0,0,1,.55-2.92,7.27,7.27,0,0,1,1.56-2.39,7.37,7.37,0,0,1,2.35-1.6,7.67,7.67,0,0,1,5.9,0,7.37,7.37,0,0,1,2.35,1.6,7.25,7.25,0,0,1,1.55,2.39,7.74,7.74,0,0,1,.56,2.92,7.63,7.63,0,0,1-.56,2.92,7,7,0,0,1-1.55,2.36,7.5,7.5,0,0,1-2.35,1.59,7.67,7.67,0,0,1-5.9,0,7.5,7.5,0,0,1-2.35-1.59,7,7,0,0,1-1.56-2.36A7.63,7.63,0,0,1,266.11,297.18Zm2.68,0a5.8,5.8,0,0,0,.35,2.05,4.58,4.58,0,0,0,1,1.58,4.75,4.75,0,0,0,6.76,0,4.56,4.56,0,0,0,1-1.58,6,6,0,0,0,0-4.09,4.74,4.74,0,0,0-1-1.62,4.53,4.53,0,0,0-1.51-1,4.84,4.84,0,0,0-3.76,0,4.55,4.55,0,0,0-1.49,1,4.76,4.76,0,0,0-1,1.62A5.82,5.82,0,0,0,268.79,297.18Z"/><path class="cls-1" d="M288.16,304.09h-3v-23h3Z"/><path class="cls-1" d="M292.39,294.09a5,5,0,0,1,2-3.22,6.78,6.78,0,0,1,4.11-1.19A6.54,6.54,0,0,1,303,291.1a12.66,12.66,0,0,1,2.15,3.76v9.23h-2.41l-.18-2.19a5.81,5.81,0,0,1-1.8,1.67,6.17,6.17,0,0,1-3.21.7,7.15,7.15,0,0,1-2.12-.3,5.16,5.16,0,0,1-1.69-.9,4.18,4.18,0,0,1-1.55-3.37q0-4.6,6.84-4.61h3.12v-.24a3.27,3.27,0,0,0-1-2.17,3.87,3.87,0,0,0-2.71-.82,4.23,4.23,0,0,0-2.28.55,2.51,2.51,0,0,0-1.19,1.68Zm5.27,7.9a5,5,0,0,0,3.26-1,3.72,3.72,0,0,0,1.24-3.06v-.82h-3.5a6.21,6.21,0,0,0-3.23.63,2.26,2.26,0,0,0-.11,3.64A3.91,3.91,0,0,0,297.66,302Z"/><path class="cls-1" d="M307.16,290.09h3.39l.5-5h2.11v5h4v2h-4v7.59a2.34,2.34,0,0,0,.57,2.05,3,3,0,0,0,1.84.48,7.32,7.32,0,0,0,1.59-.21v2.2a8.53,8.53,0,0,1-2.5.35,6.55,6.55,0,0,1-1.75-.23,3.45,3.45,0,0,1-1.43-.75,3.83,3.83,0,0,1-1-1.39,5.51,5.51,0,0,1-.36-2.13v-8h-3Z"/><path class="cls-1" d="M322.39,298.09a4.52,4.52,0,0,0,1.44,3.16,5.18,5.18,0,0,0,3.49,1.1,4.65,4.65,0,0,0,2.68-.69,3.78,3.78,0,0,0,1.32-1.57h2.57a6.2,6.2,0,0,1-2.22,3.23,7,7,0,0,1-4.39,1.32,7.68,7.68,0,0,1-3-.59,7.22,7.22,0,0,1-2.36-1.59,7.1,7.1,0,0,1-1.52-2.36,7.81,7.81,0,0,1-.53-2.92,7.92,7.92,0,0,1,.53-2.92,7.33,7.33,0,0,1,1.52-2.39,7.24,7.24,0,0,1,2.32-1.6,7.17,7.17,0,0,1,2.95-.59,6.88,6.88,0,0,1,2.91.59,6.49,6.49,0,0,1,2.21,1.59,7.17,7.17,0,0,1,1.41,2.26,6.69,6.69,0,0,1,.49,2.59v.73a1.92,1.92,0,0,1-.06.65Zm4.85-6.11a4.55,4.55,0,0,0-3.23,1.15,5,5,0,0,0-1.51,3h9.1a4.35,4.35,0,0,0-.34-1.53,4.09,4.09,0,0,0-.85-1.33,4.22,4.22,0,0,0-1.36-.91A4.75,4.75,0,0,0,327.24,292Z"/><path class="cls-1" d="M338.16,290.09h2.75l.25,2c.21-.22.46-.45.74-.71a5.41,5.41,0,0,1,1-.71,6.8,6.8,0,0,1,1.32-.56,6.05,6.05,0,0,1,1.78-.23c.2,0,.39,0,.6,0a3.81,3.81,0,0,1,.59.08v2.43a5,5,0,0,0-1-.11,5.91,5.91,0,0,0-1.72.24,5.79,5.79,0,0,0-1.4.6A6.65,6.65,0,0,0,342,294a9.72,9.72,0,0,0-.79.84v9.29h-3Z"/><path class="cls-1" d="M349.35,284.36a1.71,1.71,0,0,1,.5-1.27,1.69,1.69,0,0,1,1.29-.52,1.77,1.77,0,0,1,1.28.52,1.75,1.75,0,0,1,0,2.53,1.77,1.77,0,0,1-1.28.52,1.69,1.69,0,0,1-1.29-.52A1.72,1.72,0,0,1,349.35,284.36Zm-.19,5.73h3v14h-3Z"/><path class="cls-1" d="M359.24,298.09a4.49,4.49,0,0,0,1.45,3.16,5.13,5.13,0,0,0,3.48,1.1,4.65,4.65,0,0,0,2.68-.69,3.78,3.78,0,0,0,1.32-1.57h2.57a6.15,6.15,0,0,1-2.22,3.23,7,7,0,0,1-4.39,1.32,7.72,7.72,0,0,1-3.05-.59,7.22,7.22,0,0,1-2.36-1.59,7.1,7.1,0,0,1-1.52-2.36,8,8,0,0,1-.53-2.92,8.13,8.13,0,0,1,.53-2.92,7.33,7.33,0,0,1,1.52-2.39,7.24,7.24,0,0,1,2.32-1.6,7.17,7.17,0,0,1,2.95-.59,6.88,6.88,0,0,1,2.91.59,6.49,6.49,0,0,1,2.21,1.59,7.38,7.38,0,0,1,1.42,2.26,11.8,11.8,0,0,1,.63,2.59v.73a4.57,4.57,0,0,0-.21.65ZM364.1,292a4.55,4.55,0,0,0-3.24,1.15,5,5,0,0,0-1.51,3h9.11a4.6,4.6,0,0,0-.35-1.53,3.93,3.93,0,0,0-2.21-2.24A4.73,4.73,0,0,0,364.1,292Z"/><path class="cls-1" d="M188.22,18.53a3,3,0,0,0-3.06,2.92l-.11,41.48c-3.61,4.76-21.36,29.21-21.44,49.8,0,10.89,2.27,18.38,7.06,22.89,5,4.72,11.81,5.33,17.15,5.33,5.86,0,10.22-.89,13.72-2.82a18.14,18.14,0,0,0,7.92-9c1.84-4.23,2.75-9.59,2.77-16.41.08-20.59-17.49-45-21.07-49.81l.1-41.48A3,3,0,0,0,188.22,18.53Zm1.35,116.24a3,3,0,0,1-1.6.35c-1.19,0-2.26-.21-3.32-2.73-1.48-3.51-2.22-10.12-2.19-19.65,0-13,3.26-28.13,5.72-37.88,2.4,9.75,5.51,24.9,5.46,37.88C193.62,120.1,193.05,132.75,189.57,134.77Zm-18.82-22c0-10.26,4.95-22,9.88-31.19-2,9.31-3.93,20.79-4,31.2,0,9.77.68,16.46,2.23,20.86a10.76,10.76,0,0,1-3.16-2.15C172.34,128.1,170.71,122,170.75,112.73Zm34.61,0c-.06,16.17-5.47,19.3-7.24,20.33a11.08,11.08,0,0,1-1,.53c1.6-4.45,2.32-11.16,2.36-20.86,0-10.41-1.79-21.9-3.76-31.22C200.55,90.71,205.39,102.46,205.36,112.74Z"/><path class="cls-1" d="M206.16,70.09v7h33v31.47a54.32,54.32,0,0,1-3.8,20.68,45.41,45.41,0,0,1-26.65,26,56.32,56.32,0,0,1-20.22,3.55,61.2,61.2,0,0,1-20.8-3.38,46.78,46.78,0,0,1-16.17-9.64A43.31,43.31,0,0,1,141,130.39a53,53,0,0,1-3.79-20.51V77.09h33v-7h-40V110a59.59,59.59,0,0,0,4.35,23.23,51.07,51.07,0,0,0,30.39,28.91A66.84,66.84,0,0,0,188,166a61.12,61.12,0,0,0,22.59-4.12,54.56,54.56,0,0,0,18.15-11.62,52.77,52.77,0,0,0,12.07-18.12,61.44,61.44,0,0,0,4.36-23.48V70.09Z"/></svg>