<svg xmlns="http://www.w3.org/2000/svg" width="30" height="30"><path d="M21.004 14.453h-.25c-.26 0-.47.208-.47.464s.21.464.47.464a.53.53 0 01.531.526.53.53 0 01-.532.526h-.5c-.26 0-.47.208-.47.464s.21.464.47.464a.53.53 0 01.532.526.53.53 0 01-.532.526h-.5c-.26 0-.47.207-.47.464 0 .256.21.464.47.464a.53.53 0 01.531.526.53.53 0 01-.531.526h-7.54v-4.486a.467.467 0 00-.47-.464.467.467 0 00-.469.464v4.95a.03.03 0 01-.031.03H8.24a.031.031 0 01-.031-.03v-7.92a.03.03 0 01.031-.03h3.003a.03.03 0 01.031.03v.99c0 .256.21.464.47.464a.466.466 0 00.468-.464v-.99l-.003-.067a7.12 7.12 0 00.817-.734c.173-.183.363-.309.564-.373a5.807 5.807 0 002.276-1.342c.538-.522.859-1.066.859-1.456a.75.75 0 01.228-.543.791.791 0 01.56-.224.718.718 0 01.538.247c.17.19.255.465.225.733-.102.922-.848 2.062-1.899 2.904a.46.46 0 00-.147.515.47.47 0 00.442.31h4.331c.432 0 .782.346.782.773 0 .426-.35.773-.781.773zm1.72-.773c0-.939-.771-1.702-1.72-1.702h-3.162c.769-.854 1.27-1.826 1.368-2.698a1.863 1.863 0 00-.457-1.451 1.657 1.657 0 00-1.23-.559h-.017c-.458 0-.888.175-1.213.493a1.671 1.671 0 00-.507 1.194c-.016.1-.192.44-.623.846A4.898 4.898 0 0113.3 10.88a2.285 2.285 0 00-.959.62 6.178 6.178 0 01-.646.59.972.972 0 00-.453-.112H8.24c-.535 0-.97.43-.97.96v7.918c0 .53.435.96.97.96h3.002a.97.97 0 00.848-.495h7.663c.81 0 1.47-.653 1.47-1.454 0-.27-.074-.523-.204-.74a1.438 1.438 0 00.5-1.98c.423-.255.705-.715.705-1.24 0-.303-.094-.585-.256-.819.456-.306.757-.823.757-1.408z"/><path d="M9.545 18.18a.456.456 0 00-.455.455.456.456 0 00.909 0 .456.456 0 00-.454-.455z"/><path d="M28.23 15.171l.776 2.052-1.371 1.711a.47.47 0 00-.103.316l.104 2.19-1.833 1.205a.47.47 0 00-.196.268l-.578 2.116-2.116.578a.47.47 0 00-.268.196l-1.204 1.833-2.191-.104a.47.47 0 00-.316.103l-1.711 1.371-2.052-.775a.47.47 0 00-.332 0l-2.052.775-1.711-1.371a.47.47 0 00-.316-.103l-2.19.104-1.205-1.833a.47.47 0 00-.268-.196L4.98 25.03l-.578-2.116a.47.47 0 00-.196-.268L2.374 21.44l.104-2.191a.47.47 0 00-.103-.316l-1.371-1.711.775-2.052a.47.47 0 000-.332l-.775-2.052 1.371-1.711a.47.47 0 00.103-.316l-.104-2.19 1.833-1.205a.47.47 0 00.196-.268L4.98 4.98l2.116-.578a.47.47 0 00.268-.196L8.57 2.374l2.191.104a.47.47 0 00.316-.103l1.711-1.371 2.052.775a.47.47 0 00.332 0l2.052-.775 1.711 1.371a.47.47 0 00.316.103l2.19-.104 1.205 1.833a.47.47 0 00.268.196l2.116.578.578 2.116c.03.11.1.205.196.268l1.833 1.204-.104 2.191a.47.47 0 00.103.316l1.371 1.711-.775 2.052a.47.47 0 000 .332zm.933-.171l.807-2.135a.47.47 0 00-.073-.46l-1.427-1.782.107-2.28a.47.47 0 00-.211-.415l-1.908-1.253-.602-2.202a.47.47 0 00-.33-.329l-2.201-.602-1.254-1.908a.47.47 0 00-.414-.211l-2.28.107L17.595.103a.47.47 0 00-.46-.073L15 .837 12.865.03a.47.47 0 00-.46.073l-1.782 1.428-2.28-.108a.469.469 0 00-.414.211L6.675 3.542l-2.201.602a.47.47 0 00-.33.33l-.602 2.201L1.634 7.93a.47.47 0 00-.211.414l.108 2.28-1.428 1.782a.47.47 0 00-.073.46L.837 15 .03 17.135a.47.47 0 00.073.46l1.427 1.782-.107 2.28a.47.47 0 00.211.414l1.908 1.254.602 2.202a.47.47 0 00.33.329l2.201.602 1.253 1.908c.092.139.25.218.415.211l2.28-.107 1.782 1.427a.47.47 0 00.46.073L15 29.163l2.135.807a.47.47 0 00.46-.073l1.782-1.427 2.28.107a.47.47 0 00.414-.211l1.254-1.908 2.202-.602a.47.47 0 00.329-.33l.602-2.201 1.908-1.254a.47.47 0 00.211-.414l-.107-2.28 1.427-1.782a.47.47 0 00.073-.46z"/><path d="M23.502 7.31a13.538 13.538 0 00-.813-.813.518.518 0 10-.701.763 12.561 12.561 0 01.75.75.517.517 0 00.732.032.518.518 0 00.032-.733zM21.598 4.612a12.494 12.494 0 00-7.861-1.818 12.394 12.394 0 00-7.41 3.47A11.94 11.94 0 002.74 14.31a11.902 11.902 0 002.864 8.253.483.483 0 00.678.057.467.467 0 00.058-.666 10.97 10.97 0 01-2.639-7.606 11.004 11.004 0 013.305-7.414 11.422 11.422 0 016.83-3.199 11.517 11.517 0 017.246 1.675c.224.14.52.076.663-.144a.468.468 0 00-.147-.653zM25.388 8.403a.468.468 0 00-.653-.148.486.486 0 00-.144.664 11.514 11.514 0 011.675 7.246 11.422 11.422 0 01-3.2 6.83 11.004 11.004 0 01-7.413 3.305 10.968 10.968 0 01-7.606-2.64.467.467 0 00-.666.06.487.487 0 00.057.677 11.902 11.902 0 008.253 2.864 11.94 11.94 0 008.044-3.587 12.393 12.393 0 003.471-7.41c.28-2.75-.366-5.542-1.818-7.861z"/></svg>