<?xml version="1.0" encoding="UTF-8"?>
<svg width="16px" height="16px" viewBox="0 0 16 16" version="1.1" xmlns="http://www.w3.org/2000/svg" xmlns:xlink="http://www.w3.org/1999/xlink">
    <g id="SM" stroke="none" stroke-width="1" fill="none" fill-rule="evenodd">
        <g id="MS4_2" transform="translate(-66.000000, -655.000000)" fill="#BF883B" fill-rule="nonzero">
            <g id="Group" transform="translate(61.000000, 651.000000)">
                <g id="empty" transform="translate(5.000000, 4.000000)">
                    <path d="M16,8 C16,10.136875 15.1678437,12.1458437 13.656875,13.656875 C12.1458437,15.1678437 10.136875,16 8,16 C6.50409375,16 5.07115625,15.5916875 3.8275625,14.8286875 L4.74475,13.9115 C5.7106875,14.4455 6.820375,14.75 8,14.75 C11.7219687,14.75 14.75,11.7219687 14.75,8 C14.75,6.820375 14.4455,5.7106875 13.9114688,4.74478125 L14.8286875,3.82759375 C15.5916875,5.07115625 16,6.50409375 16,8 Z M0.9106875,15.9731875 L0.0268125,15.0893125 L1.9183125,13.1978125 C0.67709375,11.7501562 0,9.92715625 0,8 C0,5.863125 0.83215625,3.85415625 2.343125,2.343125 C3.85415625,0.83215625 5.863125,-1.77635684e-15 8,-1.77635684e-15 C9.92715625,-1.77635684e-15 11.7501562,0.67709375 13.1978125,1.9183125 L15.0893125,0.0268125 L15.9731875,0.9106875 L0.9106875,15.9731875 Z M2.80790625,12.3081875 L12.3081875,2.80790625 C11.1384688,1.83559375 9.63640625,1.25 8,1.25 C4.27803125,1.25 1.25,4.27803125 1.25,8 C1.25,9.63640625 1.8355625,11.1384687 2.80790625,12.3081875 Z" id="Shape"></path>
                </g>
            </g>
        </g>
    </g>
</svg>