<?xml version="1.0" encoding="UTF-8"?>
<svg width="25px" height="16px" viewBox="0 0 25 16" version="1.1" xmlns="http://www.w3.org/2000/svg" xmlns:xlink="http://www.w3.org/1999/xlink">
    <title>group</title>
    <g id="SM" stroke="none" stroke-width="1" fill="none" fill-rule="evenodd">
        <g id="MS4_2" transform="translate(-61.000000, -685.000000)" fill="#BF883B" fill-rule="nonzero">
            <g id="Group" transform="translate(61.000000, 651.000000)">
                <g id="group" transform="translate(0.000000, 34.000000)">
                    <path d="M21.423083,7.02857143 C22.1484585,6.51180124 22.6287747,5.65217391 22.6287747,4.68322981 C22.6287747,3.09813665 21.3642688,1.81614907 19.8007905,1.81614907 C18.2373123,1.81614907 16.9728063,3.09813665 16.9728063,4.68322981 C16.9728063,5.65217391 17.4482213,6.51180124 18.178498,7.02857143 C17.5560474,7.24720497 16.9875099,7.58509317 16.5071937,8.02236025 C15.8455336,7.45093168 15.0662451,7.0136646 14.2134387,6.7552795 C15.2475889,6.11925466 15.9435573,4.96149068 15.9435573,3.6447205 C15.9435573,1.63726708 14.3408696,0.0124223602 12.3607905,0.0124223602 C10.3807115,0.0124223602 8.77802372,1.64223602 8.77802372,3.6447205 C8.77802372,4.96149068 9.46909091,6.11925466 10.5081423,6.7552795 C9.66513834,7.0136646 8.89565217,7.44596273 8.23889328,8.00745342 C7.75857708,7.58012422 7.1998419,7.24720497 6.58719368,7.03354037 C7.31256917,6.51677019 7.79288538,5.65714286 7.79288538,4.68819876 C7.79288538,3.10310559 6.52837945,1.82111801 4.96490119,1.82111801 C3.40142292,1.82111801 2.136917,3.10310559 2.136917,4.68819876 C2.136917,5.65714286 2.61233202,6.51677019 3.3426087,7.03354037 C1.39683794,7.71428571 0,9.58757764 0,11.7888199 L0,12.1167702 C0,12.1267081 0.00980237154,12.136646 0.0196047431,12.136646 L6.01375494,12.136646 C5.97944664,12.4099379 5.9598419,12.6931677 5.9598419,12.9763975 L5.9598419,13.3142857 C5.9598419,14.7751553 7.12632411,15.957764 8.56727273,15.957764 L16.1641107,15.957764 C17.6050593,15.957764 18.7715415,14.7751553 18.7715415,13.3142857 L18.7715415,12.9763975 C18.7715415,12.6931677 18.7519368,12.4099379 18.7176285,12.136646 L24.7509881,12.136646 C24.7607905,12.136646 24.7705929,12.1267081 24.7705929,12.1167702 L24.7705929,11.7888199 C24.7607905,9.5826087 23.3688538,7.70931677 21.423083,7.02857143 Z M17.756996,4.67826087 C17.756996,3.53540373 18.6735178,2.60621118 19.8007905,2.60621118 C20.9280632,2.60621118 21.844585,3.53540373 21.844585,4.67826087 C21.844585,5.80621118 20.947668,6.72546584 19.84,6.75031056 C19.8252964,6.75031056 19.8154941,6.75031056 19.8007905,6.75031056 C19.786087,6.75031056 19.7762846,6.75031056 19.761581,6.75031056 C18.6490119,6.73043478 17.756996,5.81118012 17.756996,4.67826087 Z M9.55241107,3.6447205 C9.55241107,2.07950311 10.8071146,0.807453416 12.3509881,0.807453416 C13.8948617,0.807453416 15.1495652,2.07950311 15.1495652,3.6447205 C15.1495652,5.1552795 13.9781818,6.39254658 12.5127273,6.47701863 C12.4588142,6.47701863 12.4049012,6.47701863 12.3509881,6.47701863 C12.2970751,6.47701863 12.2431621,6.47701863 12.189249,6.47701863 C10.7237945,6.39254658 9.55241107,5.1552795 9.55241107,3.6447205 Z M2.90640316,4.67826087 C2.90640316,3.53540373 3.8229249,2.60621118 4.95019763,2.60621118 C6.07747036,2.60621118 6.99399209,3.53540373 6.99399209,4.67826087 C6.99399209,5.80621118 6.0970751,6.72546584 4.98940711,6.75031056 C4.97470356,6.75031056 4.96490119,6.75031056 4.95019763,6.75031056 C4.93549407,6.75031056 4.9256917,6.75031056 4.91098814,6.75031056 C3.80332016,6.73043478 2.90640316,5.81118012 2.90640316,4.67826087 Z M6.15098814,11.336646 L0.793992095,11.336646 C1.01454545,9.21987578 2.77897233,7.56024845 4.92079051,7.54534161 C4.93059289,7.54534161 4.94039526,7.54534161 4.95019763,7.54534161 C4.96,7.54534161 4.96980237,7.54534161 4.97960474,7.54534161 C5.99905138,7.55031056 6.93027668,7.93291925 7.65075099,8.55403727 C6.94498024,9.32919255 6.42055336,10.2832298 6.15098814,11.336646 Z M17.9775494,13.3142857 C17.9775494,14.3329193 17.1590514,15.1627329 16.1543083,15.1627329 L8.55747036,15.1627329 C7.55272727,15.1627329 6.73422925,14.3329193 6.73422925,13.3142857 L6.73422925,12.9763975 C6.73422925,9.89068323 9.16521739,7.36645963 12.189249,7.27701863 C12.2431621,7.28198758 12.3019763,7.28198758 12.3558893,7.28198758 C12.4098024,7.28198758 12.4686166,7.28198758 12.5225296,7.27701863 C15.5465613,7.36645963 17.9775494,9.89068323 17.9775494,12.9763975 L17.9775494,13.3142857 L17.9775494,13.3142857 Z M18.5607905,11.336646 C18.2912253,10.2881988 17.7766008,9.34906832 17.0757312,8.57391304 C17.8011067,7.9378882 18.7421344,7.5552795 19.7713834,7.54534161 C19.7811858,7.54534161 19.7909881,7.54534161 19.8007905,7.54534161 C19.8105929,7.54534161 19.8203953,7.54534161 19.8301976,7.54534161 C21.9720158,7.56024845 23.7364427,9.21987578 23.956996,11.336646 L18.5607905,11.336646 Z" id="Shape"></path>
                </g>
            </g>
        </g>
    </g>
</svg>