<?xml version="1.0" encoding="UTF-8"?>
<svg width="12px" height="16px" viewBox="0 0 12 16" version="1.1" xmlns="http://www.w3.org/2000/svg" xmlns:xlink="http://www.w3.org/1999/xlink">
    <title>premium-quality</title>
    <g id="SM" stroke="none" stroke-width="1" fill="none" fill-rule="evenodd">
        <g id="MS4_3" transform="translate(-94.000000, -59.000000)" fill="#BF883B" fill-rule="nonzero">
            <g id="Group-2" transform="translate(52.000000, 0.000000)">
                <g id="Group" transform="translate(35.000000, 55.000000)">
                    <g id="premium-quality" transform="translate(7.000000, 4.000000)">
                        <path d="M5.35192079,9.37822561 L5.44950495,9.37822561 C7.60967669,9.38246928 9.36971701,7.64511528 9.39348923,5.48507017 C9.41726145,3.32502506 7.69588345,1.54935656 5.53614136,1.50606552 C3.37639927,1.46277447 1.58524761,3.16803592 1.52244128,5.32729861 C1.45963495,7.4865613 3.14864057,9.29304985 5.30724752,9.37536634 C5.30962376,9.37565149 5.312,9.37609505 5.31440792,9.37631683 C5.32689109,9.37755248 5.33940594,9.37822561 5.35192079,9.37822561 L5.35192079,9.37822561 Z M2.28118812,5.44950495 C2.28118812,3.69969188 3.69969188,2.28118812 5.44950495,2.28118812 C7.19931802,2.28118812 8.61782178,3.69969188 8.61782178,5.44950495 C8.61782178,7.19931802 7.19931802,8.61782178 5.44950495,8.61782178 C3.70050979,8.61584876 2.28316114,7.19850011 2.28118812,5.44950495 Z" id="Shape"></path>
                        <path d="M11.5150891,12.1547723 L8.96776238,9.60744554 C10.1926757,8.5736969 10.8993082,7.05233025 10.8990099,5.44950495 C10.8990099,2.44464158 8.45436832,0 5.44950495,0 C2.44464158,0 -1.80097961e-15,2.44464158 -1.80097961e-15,5.44950495 C-1.80097961e-15,7.78604356 1.47824158,9.78357228 3.54851485,10.5568317 L3.54851485,15.5881188 C3.5390099,15.8824238 3.90000792,16.0755327 4.13959604,15.9044436 L5.44950495,15.0311921 L6.75941386,15.9044436 C6.99938218,16.0755327 7.35977822,15.8822653 7.35049505,15.5881188 L7.35049505,13.3668436 L8.82693069,14.8430891 C9.02954455,15.0581861 9.41978614,14.9389307 9.4686099,14.6488079 L9.77720396,13.1050772 L11.3209663,12.7964198 C11.6112792,12.7479129 11.7298059,12.3562455 11.5150891,12.1547723 Z M0.76039604,5.44950495 C0.76039604,2.86393663 2.86393663,0.76039604 5.44950495,0.76039604 C8.03507327,0.76039604 10.1386139,2.86393663 10.1386139,5.44950495 C10.1386139,8.03507327 8.03507327,10.1386139 5.44950495,10.1386139 C2.86393663,10.1386139 0.76039604,8.03507327 0.76039604,5.44950495 Z M5.66038812,14.2579327 C5.53268567,14.1728051 5.36632423,14.1728051 5.23862178,14.2579327 L4.30891089,14.8777188 L4.30891089,10.7786139 C5.06082574,10.939226 5.83818417,10.939226 6.59009901,10.7786139 L6.59009901,14.8777822 L5.66038812,14.2579327 Z M9.3793901,12.4091248 C9.228854,12.4392162 9.11118448,12.5568857 9.08109307,12.7074218 L8.86206733,13.8030257 L7.35049505,12.2914535 L7.35049505,10.5568317 C7.69886124,10.4266379 8.03293801,10.2610169 8.34746931,10.0625743 L10.4750257,12.1901624 L9.3793901,12.4091248 Z" id="Shape"></path>
                        <path d="M6.45132673,7.38170297 C6.7158495,7.53042376 7.06125941,7.27993663 7.00156832,6.98192475 L6.81650693,5.8684198 L7.62075248,5.07634059 C7.84408713,4.8704 7.71231683,4.46485545 7.41056634,4.42952871 L6.29436832,4.26141782 L5.7895604,3.2517703 C5.66254257,2.97571485 5.23646733,2.97577822 5.1094495,3.2517703 L4.60464158,4.26138614 L3.48844356,4.42949703 C3.1866297,4.4649505 3.05498614,4.87024158 3.27825743,5.07630891 L4.08250297,5.86838812 L3.89744158,6.98189307 C3.83790891,7.27990495 4.1825901,7.53032871 4.44768317,7.38167129 L5.44950495,6.86162376 L6.45132673,7.38170297 Z M4.77211881,6.35646733 L4.86488713,5.79836832 C4.88516563,5.67630832 4.84477862,5.55201514 4.75662574,5.46518812 L4.35358416,5.06816634 L4.91304554,4.98388911 C5.03542074,4.96546779 5.14117303,4.8886387 5.19651485,4.77794851 L5.44950495,4.27193663 L5.70249505,4.7779802 C5.75783687,4.88867038 5.86358916,4.96549947 5.98596436,4.98392079 L6.54542574,5.06819802 L6.14232079,5.46534653 C6.05416792,5.55217356 6.01378091,5.67646673 6.03405941,5.79852673 L6.12682772,6.35662574 L5.62468119,6.09584158 C5.51485571,6.03882707 5.38415419,6.03882707 5.27432871,6.09584158 L4.77211881,6.35646733 Z" id="Shape"></path>
                    </g>
                </g>
            </g>
        </g>
    </g>
</svg>