<?xml version="1.0" encoding="UTF-8"?>
<svg width="23px" height="16px" viewBox="0 0 23 16" version="1.1" xmlns="http://www.w3.org/2000/svg" xmlns:xlink="http://www.w3.org/1999/xlink">
    <title>van</title>
    <g id="SM" stroke="none" stroke-width="1" fill="none" fill-rule="evenodd">
        <g id="MS4_2" transform="translate(-64.000000, -715.000000)" fill="#BF883B" fill-rule="nonzero">
            <g id="Group" transform="translate(61.000000, 651.000000)">
                <g id="van" transform="translate(3.000000, 64.000000)">
                    <path d="M22.1050875,9.94613341 L20.771816,5.67946685 C20.7067634,5.47113352 20.5407711,5.33320019 20.3553908,5.33333343 L17.2444239,5.33333343 C16.9989908,5.33333343 16.8,5.57213352 16.8,5.86666685 L16.8,10.1333334 C16.8,10.4278667 16.9989908,10.6666668 17.2444239,10.6666668 L21.6886624,10.6666668 C21.8343779,10.6667334 21.9709271,10.5810667 22.0539788,10.4373334 C22.1371416,10.2936001 22.1562518,10.1100001 22.1050875,9.94613341 Z M17.6888477,9.60000008 L17.6888477,6.40000017 L20.0474051,6.40000017 L21.0473588,9.60000008 L17.6888477,9.60000008 Z" id="Shape"></path>
                    <path d="M21.9751111,9.6657555 L21.0037333,8.93746434 L19.4311111,4.21537003 C19.064,3.12513296 18.1368444,2.40284091 17.1004444,2.39964138 L14.3111111,2.39964138 L14.3111111,0.399940231 C14.3111111,0.179073238 14.1519111,0 13.9555556,0 L1.15555556,0 C0.9592,0 0.8,0.179073238 0.8,0.399940231 L0.8,13.9979081 C0.8,14.2187751 0.9592,14.3978483 1.15555556,14.3978483 L3.68,14.3978483 C3.87537778,15.4801866 4.81377778,16.1793821 5.776,15.9596149 C6.4756,15.7998388 7.0224,15.1847807 7.16444444,14.3978483 L15.4133333,14.3978483 C15.6087111,15.4801866 16.5471111,16.1793821 17.5093333,15.9596149 C18.2089333,15.7998388 18.7557333,15.1847807 18.8977778,14.3978483 L21.7777778,14.3978483 C21.9741333,14.3978483 22.1333333,14.2187751 22.1333333,13.9979081 L22.1333333,9.99850577 C22.1333333,9.86482575 22.074,9.73994441 21.9751111,9.6657555 Z M3.68035556,13.5979678 L1.51111111,13.5979678 L1.51111111,12.7980874 L4.00924444,12.7980874 C3.8476,13.0335522 3.7352,13.3069613 3.68035556,13.5979678 Z M5.42222222,15.1977288 C4.83311111,15.1977288 4.35555556,14.660559 4.35555556,13.9979081 C4.35555556,13.3352571 4.83311111,12.7980874 5.42222222,12.7980874 C6.01133333,12.7980874 6.48888889,13.3352571 6.48888889,13.9979081 C6.48888889,14.660559 6.01133333,15.1977288 5.42222222,15.1977288 Z M13.6,13.5979678 L7.16444444,13.5979678 C6.99435556,12.6675569 6.26671111,11.9994067 5.42222222,11.9982069 L1.51111111,11.9982069 L1.51111111,3.19952185 L13.6,3.19952185 L13.6,13.5979678 Z M13.6,2.39964138 L1.51111111,2.39964138 L1.51111111,0.799880462 L13.6,0.799880462 L13.6,2.39964138 Z M17.1555556,15.1977288 C16.5664444,15.1977288 16.0888889,14.660559 16.0888889,13.9979081 C16.0888889,13.3352571 16.5664444,12.7980874 17.1555556,12.7980874 C17.7446667,12.7980874 18.2222222,13.3352571 18.2222222,13.9979081 C18.2222222,14.660559 17.7446667,15.1977288 17.1555556,15.1977288 Z M21.4222222,13.5979678 L18.8977778,13.5979678 C18.8429333,13.3069613 18.7305333,13.0335522 18.5688889,12.7980874 L21.4222222,12.7980874 L21.4222222,13.5979678 Z M21.4222222,10.398446 L20.3555556,10.398446 L20.3555556,11.1983265 L21.4222222,11.1983265 L21.4222222,11.9982069 L17.1555556,11.9982069 C16.3110667,11.9994067 15.5834222,12.6675569 15.4133333,13.5979678 L14.3111111,13.5979678 L14.3111111,3.19952185 L17.1004444,3.19952185 C17.8400889,3.20232143 18.5015111,3.71804436 18.7633778,4.49612807 L20.3779556,9.33900433 C20.4044,9.41739262 20.4518667,9.48463257 20.5137778,9.53137558 L21.4222222,10.2124738 L21.4222222,10.398446 Z" id="Shape"></path>
                    <rect id="Rectangle" x="6.13333333" y="10.245614" width="5.33333333" height="1"></rect>
                </g>
            </g>
        </g>
    </g>
</svg>