<svg xmlns="http://www.w3.org/2000/svg" width="24" height="22" viewBox="0 0 24 22"><g><g><path fill="#bf883b" d="M12.228 20.979c-.32 0-.628-.116-.868-.326a260.26 260.26 0 0 0-2.553-2.197l-.004-.003C6.54 16.525 4.587 14.86 3.227 13.22 1.707 11.386 1 9.648 1 7.749c0-1.845.633-3.548 1.781-4.794A6.039 6.039 0 0 1 7.273 1c1.297 0 2.484.41 3.529 1.218a7.219 7.219 0 0 1 1.426 1.49 7.22 7.22 0 0 1 1.427-1.49C14.7 1.41 15.887 1 17.183 1c1.734 0 3.33.694 4.492 1.955 1.149 1.246 1.781 2.949 1.781 4.794 0 1.899-.707 3.637-2.227 5.47-1.36 1.641-3.313 3.306-5.575 5.234-.773.658-1.649 1.405-2.558 2.2-.24.21-.548.326-.868.326z"/><path fill="none" stroke="#bf883b" stroke-miterlimit="20" d="M12.228 20.979c-.32 0-.628-.116-.868-.326a260.26 260.26 0 0 0-2.553-2.197l-.004-.003C6.54 16.525 4.587 14.86 3.227 13.22 1.707 11.386 1 9.648 1 7.749c0-1.845.633-3.548 1.781-4.794A6.039 6.039 0 0 1 7.273 1c1.297 0 2.484.41 3.529 1.218a7.219 7.219 0 0 1 1.426 1.49 7.22 7.22 0 0 1 1.427-1.49C14.7 1.41 15.887 1 17.183 1c1.734 0 3.33.694 4.492 1.955 1.149 1.246 1.781 2.949 1.781 4.794 0 1.899-.707 3.637-2.227 5.47-1.36 1.641-3.313 3.306-5.575 5.234-.773.658-1.649 1.405-2.558 2.2-.24.21-.548.326-.868.326z"/></g></g></svg>