<svg xmlns="http://www.w3.org/2000/svg" width="24" height="22" viewBox="0 0 24 22">
  <g>
    <g>
      <path fill="#bf883b" d="M9.993 3.258c.72.557 1.223 1.262 1.517 1.755a.823.823 0 00.713.405.823.823 0 00.713-.405c.294-.493.796-1.198 1.517-1.755a4.36 4.36 0 012.723-.943c1.361 0 2.612.544 3.522 1.53.924 1.003 1.433 2.388 1.433 3.9 0 1.597-.593 3.025-1.924 4.63-1.286 1.551-3.198 3.18-5.412 5.068-.776.66-1.655 1.41-2.574 2.21a262.749 262.749 0 00-2.565-2.206l-.004-.004c-2.215-1.887-4.127-3.517-5.413-5.068-1.33-1.605-1.924-3.033-1.924-4.63 0-1.512.509-2.897 1.433-3.9a4.735 4.735 0 013.523-1.53 4.36 4.36 0 012.722.943zm2.235 17.72c.32 0 .628-.115.868-.325.91-.795 1.785-1.542 2.558-2.2 2.262-1.928 4.216-3.593 5.575-5.233 1.52-1.834 2.227-3.572 2.227-5.471 0-1.845-.632-3.548-1.781-4.794A6.039 6.039 0 0017.183 1c-1.296 0-2.483.41-3.528 1.218a7.22 7.22 0 00-1.427 1.49 7.219 7.219 0 00-1.426-1.49C9.757 1.41 8.57 1 7.273 1c-1.734 0-3.33.694-4.492 1.955C1.633 4.201 1 5.904 1 7.75c0 1.899.708 3.637 2.227 5.47 1.36 1.641 3.313 3.306 5.576 5.234l.004.003a260.26 260.26 0 012.553 2.197c.24.21.548.326.868.326z"/>
      <path fill="none" stroke="#bf883b" stroke-miterlimit="20" d="M9.993 3.258c.72.557 1.223 1.262 1.517 1.755a.823.823 0 00.713.405.823.823 0 00.713-.405c.294-.493.796-1.198 1.517-1.755a4.36 4.36 0 012.723-.943c1.361 0 2.612.544 3.522 1.53.924 1.003 1.433 2.388 1.433 3.9 0 1.597-.593 3.025-1.924 4.63-1.286 1.551-3.198 3.18-5.412 5.068-.776.66-1.655 1.41-2.574 2.21a262.749 262.749 0 00-2.565-2.206l-.004-.004c-2.215-1.887-4.127-3.517-5.413-5.068-1.33-1.605-1.924-3.033-1.924-4.63 0-1.512.509-2.897 1.433-3.9a4.735 4.735 0 013.523-1.53 4.36 4.36 0 012.722.943zm2.235 17.72c.32 0 .628-.115.868-.325.91-.795 1.785-1.542 2.558-2.2 2.262-1.928 4.216-3.593 5.575-5.233 1.52-1.834 2.227-3.572 2.227-5.471 0-1.845-.632-3.548-1.781-4.794A6.039 6.039 0 0017.183 1c-1.296 0-2.483.41-3.528 1.218a7.22 7.22 0 00-1.427 1.49 7.219 7.219 0 00-1.426-1.49C9.757 1.41 8.57 1 7.273 1c-1.734 0-3.33.694-4.492 1.955C1.633 4.201 1 5.904 1 7.75c0 1.899.708 3.637 2.227 5.47 1.36 1.641 3.313 3.306 5.576 5.234l.004.003a260.26 260.26 0 012.553 2.197c.24.21.548.326.868.326z"/>
    </g>
  </g>
</svg>
