<?xml version="1.0" encoding="UTF-8"?>
<svg width="25px" height="25px" viewBox="0 0 25 25" version="1.1" xmlns="http://www.w3.org/2000/svg" xmlns:xlink="http://www.w3.org/1999/xlink">
    <!-- Generator: Sketch 64 (93537) - https://sketch.com -->
    <title>Path</title>
    <desc>Created with Sketch.</desc>
    <g id="UI" stroke="none" stroke-width="1" fill="none" fill-rule="evenodd">
        <g id="wctheme" transform="translate(-1374.000000, -5123.000000)" fill="#BF883B" fill-rule="nonzero">
            <path d="M1397.62,5123 L1375.37878,5123 C1374.61722,5123.00046 1374,5123.61813 1374,5124.38 L1374,5146.62122 C1374.00046,5147.38278 1374.61813,5148 1375.38,5148 L1387.35449,5148 L1387.35449,5138.33203 L1384.10742,5138.33203 L1384.10742,5134.54785 L1387.35449,5134.54785 L1387.35449,5131.76297 C1387.35449,5128.53345 1389.32608,5126.77563 1392.20694,5126.77563 C1393.58679,5126.77563 1394.77255,5126.87848 1395.11816,5126.92441 L1395.11816,5130.2998 L1393.13162,5130.2998 C1391.56424,5130.2998 1391.26074,5131.04459 1391.26074,5132.13773 L1391.26074,5134.54785 L1395.0083,5134.54785 L1394.52002,5138.33203 L1391.26074,5138.33203 L1391.26074,5148 L1397.62,5148 C1398.38202,5148 1399,5147.38263 1399,5146.62061 C1399,5146.62045 1399,5146.6203 1399,5146.62 L1399,5124.37878 C1398.99969,5123.61722 1398.38187,5123 1397.62,5123 Z" id="Path"></path>
        </g>
    </g>
</svg>