<?xml version="1.0" encoding="UTF-8"?>
<svg width="26px" height="22px" viewBox="0 0 26 22" version="1.1" xmlns="http://www.w3.org/2000/svg" xmlns:xlink="http://www.w3.org/1999/xlink">
    <title>heart</title>
    <g id="UI" stroke="none" stroke-width="1" fill="none" fill-rule="evenodd">
        <g id="wctheme" transform="translate(-369.000000, -2013.000000)" fill="#BF883B" fill-rule="nonzero">
            <g id="heart" transform="translate(369.000000, 2013.000000)">
                <path d="M12.5,22 C12.1440888,22 11.8009567,21.872466 11.5335464,21.6407917 C10.5236054,20.7672967 9.54990386,19.9464378 8.69083403,19.2223613 L8.68644717,19.2185881 C6.16779326,17.0955991 3.99284365,15.2622028 2.47955322,13.4561623 C0.787925732,11.4371248 0,9.52279354 0,7.43149934 C0,5.39963296 0.704383838,3.5251089 1.98326113,2.15298597 C3.27739717,0.764638276 5.05313872,0 6.98394775,0 C8.42704775,0 9.74864961,0.451274311 10.9119415,1.34118271 C11.4990234,1.79038175 12.0311737,2.34013652 12.5,2.98139129 C12.969017,2.34013652 13.5009766,1.79038175 14.0882492,1.34118271 C15.2515411,0.451274311 16.573143,0 18.016243,0 C19.9468613,0 21.7227936,0.764638276 23.0169296,2.15298597 C24.2958069,3.5251089 25,5.39963296 25,7.43149934 C25,9.52279354 24.212265,11.4371248 22.5206375,13.4559737 C21.0073471,15.2622028 18.8325882,17.0954104 16.3143158,19.2182108 C15.4537201,19.9434192 14.4784927,20.7655987 13.4662628,21.641169 C13.1990433,21.872466 12.8557205,22 12.5,22 L12.5,22 Z M6.98394775,1.44853019 C5.4670334,1.44853019 4.07352446,2.04733647 3.05976865,3.13477172 C2.03094482,4.23862039 1.46427153,5.76450109 1.46427153,7.43149934 C1.46427153,9.19037489 2.12516787,10.7634206 3.60698701,12.5319178 C5.03921509,14.2413645 7.16953276,16.0370288 9.63611602,18.1162487 L9.64069365,18.120022 C10.503006,18.8469283 11.4805222,19.6709944 12.4979019,20.5509039 C13.5213852,19.6692964 14.5004272,18.8439097 15.3644562,18.1158714 C17.8308487,16.0366515 19.9609756,14.2413645 21.3932037,12.5319178 C22.8748321,10.7634206 23.5357285,9.19037489 23.5357285,7.43149934 C23.5357285,5.76450109 22.9690552,4.23862039 21.9402313,3.13477172 C20.9266663,2.04733647 19.5329666,1.44853019 18.016243,1.44853019 C16.9050217,1.44853019 15.8847809,1.79792815 14.9839401,2.48691389 C14.1811371,3.1011903 13.6219024,3.8777141 13.2940292,4.42105441 C13.1254196,4.70045966 12.8286362,4.86723495 12.5,4.86723495 C12.1713638,4.86723495 11.8745804,4.70045966 11.7059708,4.42105441 C11.3782883,3.8777141 10.8190537,3.1011903 10.0160599,2.48691389 C9.11521914,1.79792815 8.09497832,1.44853019 6.98394775,1.44853019 Z" id="Shape"></path>
            </g>
        </g>
    </g>
</svg>