<?xml version="1.0" encoding="UTF-8"?>
<svg width="25px" height="25px" viewBox="0 0 25 25" version="1.1" xmlns="http://www.w3.org/2000/svg" xmlns:xlink="http://www.w3.org/1999/xlink">
    <!-- Generator: Sketch 64 (93537) - https://sketch.com -->
    <title>Group</title>
    <desc>Created with Sketch.</desc>
    <g id="UI" stroke="none" stroke-width="1" fill="none" fill-rule="evenodd">
        <g id="wctheme" transform="translate(-1419.000000, -5123.000000)" fill="#BF883B" fill-rule="nonzero">
            <g id="Group" transform="translate(1419.000000, 5123.000000)">
                <path d="M17.1875,0 L7.8125,0 C3.4984375,0 0,3.4984375 0,7.8125 L0,17.1875 C0,21.5015625 3.4984375,25 7.8125,25 L17.1875,25 C21.5015625,25 25,21.5015625 25,17.1875 L25,7.8125 C25,3.4984375 21.5015625,0 17.1875,0 Z M22.65625,17.1875 C22.65625,20.203125 20.203125,22.65625 17.1875,22.65625 L7.8125,22.65625 C4.796875,22.65625 2.34375,20.203125 2.34375,17.1875 L2.34375,7.8125 C2.34375,4.796875 4.796875,2.34375 7.8125,2.34375 L17.1875,2.34375 C20.203125,2.34375 22.65625,4.796875 22.65625,7.8125 L22.65625,17.1875 Z" id="Shape"></path>
                <path d="M12.5,6 C8.910375,6 6,8.910375 6,12.5 C6,16.089625 8.910375,19 12.5,19 C16.089625,19 19,16.089625 19,12.5 C19,8.910375 16.089625,6 12.5,6 Z M12.5,16.5625 C10.26075,16.5625 8.4375,14.73925 8.4375,12.5 C8.4375,10.259125 10.26075,8.4375 12.5,8.4375 C14.73925,8.4375 16.5625,10.259125 16.5625,12.5 C16.5625,14.73925 14.73925,16.5625 12.5,16.5625 Z" id="Shape"></path>
                <circle id="Oval" cx="19" cy="6" r="1"></circle>
            </g>
        </g>
    </g>
</svg>