<?xml version="1.0" encoding="UTF-8"?>
<svg width="20px" height="20px" viewBox="0 0 20 20" version="1.1" xmlns="http://www.w3.org/2000/svg" xmlns:xlink="http://www.w3.org/1999/xlink">
    <title>Konto</title>
    <g id="UI" stroke="none" stroke-width="1" fill="none" fill-rule="evenodd">
        <g id="Regulamin-sklepu" transform="translate(-1617.000000, -56.000000)" fill="#000000" fill-rule="nonzero">
            <path d="M1634.07109,68.9289062 C1632.98191,67.8397656 1631.68551,67.0334766 1630.27105,66.5453906 C1631.78598,65.5019922 1632.78125,63.7557812 1632.78125,61.78125 C1632.78125,58.5934766 1630.18777,56 1627,56 C1623.81223,56 1621.21875,58.5934766 1621.21875,61.78125 C1621.21875,63.7557812 1622.21402,65.5019922 1623.72898,66.5453906 C1622.31453,67.0334766 1621.01813,67.8397656 1619.92895,68.9289062 C1618.0402,70.8176953 1617,73.3289063 1617,76 L1618.5625,76 C1618.5625,71.3475391 1622.34754,67.5625 1627,67.5625 C1631.65246,67.5625 1635.4375,71.3475391 1635.4375,76 L1637,76 C1637,73.3289063 1635.9598,70.8176953 1634.07109,68.9289062 Z M1627,66 C1624.67379,66 1622.78125,64.1075 1622.78125,61.78125 C1622.78125,59.455 1624.67379,57.5625 1627,57.5625 C1629.32621,57.5625 1631.21875,59.455 1631.21875,61.78125 C1631.21875,64.1075 1629.32621,66 1627,66 Z" id="Konto"></path>
        </g>
    </g>
</svg>