<?xml version="1.0" encoding="UTF-8"?>
<svg width="23px" height="20px" viewBox="0 0 23 20" version="1.1" xmlns="http://www.w3.org/2000/svg" xmlns:xlink="http://www.w3.org/1999/xlink">
    <title>koszyk</title>
    <g id="UI" stroke="none" stroke-width="1" fill="none" fill-rule="evenodd">
        <g id="Regulamin-sklepu" transform="translate(-1657.000000, -56.000000)" fill="#000000" fill-rule="nonzero">
            <g id="koszyk" transform="translate(1657.000000, 56.000000)">
                <path d="M7.41035464,13.3335069 L7.41140747,13.3335069 C7.41228484,13.3335069 7.41316225,13.3333333 7.41403962,13.3333333 L19.6308594,13.3333333 C19.9316253,13.3333333 20.1960678,13.1359375 20.278717,12.8498264 L22.9740295,3.51649307 C23.0321121,3.31527778 22.9914017,3.09895831 22.8641815,2.93194444 C22.7367859,2.76493058 22.5376205,2.66666667 22.3261719,2.66666667 L5.85633852,2.66666667 L5.37465667,0.522048622 C5.30604555,0.217013867 5.03265381,0 4.71679687,0 L0.673828125,0 C0.301643383,0 -1.95399252e-14,0.298437511 -1.95399252e-14,0.666666667 C-1.95399252e-14,1.03489582 0.301643383,1.33333333 0.673828125,1.33333333 L4.17633057,1.33333333 C4.26161196,1.71336804 6.48138428,11.5963542 6.60913086,12.1649306 C5.89301301,12.4729167 5.390625,13.1793403 5.390625,14 C5.390625,15.1027778 6.29748535,16 7.41210937,16 L19.6308594,16 C20.0030441,16 20.3046875,15.7015625 20.3046875,15.3333333 C20.3046875,14.9651042 20.0030441,14.6666667 19.6308594,14.6666667 L7.41210937,14.6666667 C7.04062654,14.6666667 6.73828125,14.3675347 6.73828125,14 C6.73828125,13.6329861 7.03957366,13.334375 7.41035464,13.3335069 L7.41035464,13.3335069 Z M21.4328232,4 L19.1225052,12 L7.95257568,12 L6.15570068,4 L21.4328232,4 Z" id="Shape"></path>
                <path d="M6.73828125,18 C6.73828125,19.1027778 7.6451416,20 8.75976562,20 C9.87438965,20 10.78125,19.1027778 10.78125,18 C10.78125,16.8972222 9.87438965,16 8.75976562,16 C7.6451416,16 6.73828125,16.8972222 6.73828125,18 Z M8.75976562,17.3333333 C9.13124846,17.3333333 9.43359375,17.6324653 9.43359375,18 C9.43359375,18.3675347 9.13124846,18.6666667 8.75976562,18.6666667 C8.38828279,18.6666667 8.0859375,18.3675347 8.0859375,18 C8.0859375,17.6324653 8.38828279,17.3333333 8.75976562,17.3333333 Z" id="Shape"></path>
                <path d="M16.2617188,18 C16.2617188,19.1027778 17.1685791,20 18.2832031,20 C19.3978271,20 20.3046875,19.1027778 20.3046875,18 C20.3046875,16.8972222 19.3978271,16 18.2832031,16 C17.1685791,16 16.2617188,16.8972222 16.2617188,18 Z M18.2832031,17.3333333 C18.654686,17.3333333 18.9570312,17.6324653 18.9570312,18 C18.9570312,18.3675347 18.654686,18.6666667 18.2832031,18.6666667 C17.9117203,18.6666667 17.609375,18.3675347 17.609375,18 C17.609375,17.6324653 17.9117203,17.3333333 18.2832031,17.3333333 Z" id="Shape"></path>
            </g>
        </g>
    </g>
</svg>