<?xml version="1.0" encoding="UTF-8"?>
<svg width="24px" height="15px" viewBox="0 0 24 15" version="1.1" xmlns="http://www.w3.org/2000/svg" xmlns:xlink="http://www.w3.org/1999/xlink">
    <title>left</title>
    <g id="UI" stroke="none" stroke-width="1" fill="none" fill-rule="evenodd">
        <g id="Sklep_v2" transform="translate(-925.000000, -1518.000000)" fill="#BF883B" fill-rule="nonzero">
            <g id="left" transform="translate(937.250000, 1525.500000) rotate(-180.000000) translate(-937.250000, -1525.500000) translate(926.000000, 1518.000000)">
                <path d="M22.3626545,7.16859184 L15.3314097,0.137340121 C15.1482897,-0.0457800405 14.851659,-0.0457800405 14.668583,0.137340121 C14.485463,0.320460283 14.485463,0.617091215 14.668583,0.800167432 L20.8996722,7.0312627 L0.468764305,7.0312627 C0.209662932,7.0312627 0,7.24092584 0,7.50002747 C0,7.75912909 0.209662932,7.96879223 0.468764305,7.96879223 L20.8996722,7.96879223 L14.668583,14.1998436 C14.485463,14.3829637 14.485463,14.6795946 14.668583,14.8626709 C14.760121,14.954209 14.8800916,15 15.0000183,15 C15.119945,15 15.2398717,14.954209 15.3314536,14.8626709 L22.3626985,7.83141915 C22.5457745,7.64834293 22.5457745,7.351712 22.3626545,7.16859184 Z" id="Path"></path>
            </g>
        </g>
    </g>
</svg>