<?xml version="1.0" encoding="UTF-8"?>
<svg width="20px" height="20px" viewBox="0 0 20 20" version="1.1" xmlns="http://www.w3.org/2000/svg" xmlns:xlink="http://www.w3.org/1999/xlink">
    <title>search</title>
    <g id="UI" stroke="none" stroke-width="1" fill="none" fill-rule="evenodd">
        <g id="wctheme" transform="translate(-242.000000, -56.000000)" fill="#000000" fill-rule="nonzero">
            <path d="M261.968478,75.086087 L255.200906,68.3185145 C256.306196,67.0133333 256.976377,65.3285507 256.976377,63.4881884 C256.976377,59.3589493 253.617391,56 249.488188,56 C245.358986,56 242,59.3589493 242,63.4881884 C242,67.6174275 245.358949,70.9763768 249.488188,70.9763768 C251.328551,70.9763768 253.013333,70.3061957 254.318514,69.2009058 L261.086087,75.9684783 C261.086087,75.9684783 261.968478,75.086087 261.968478,75.086087 Z M249.488188,69.7283333 C246.047572,69.7283333 243.248043,66.9288043 243.248043,63.4881884 C243.248043,60.0475725 246.047572,57.2480435 249.488188,57.2480435 C252.928804,57.2480435 255.728333,60.0475725 255.728333,63.4881884 C255.728333,66.9288043 252.928804,69.7283333 249.488188,69.7283333 Z" id="search"></path>
        </g>
    </g>
</svg>