<svg width="27" height="24" viewBox="0 0 27 24" xmlns="http://www.w3.org/2000/svg">
  <g fill="none" fill-rule="evenodd">
    <g>
      <g>
        <g>
          <g fill-rule="nonzero">
            <g fill="#000">
              <path d="M11.01 17.133h11.75c.29 0 .544-.173.623-.425l2.592-8.213a.543.543 0 00-.106-.515.673.673 0 00-.517-.233H9.516l-.463-1.888c-.066-.268-.33-.459-.633-.459H4.533c-.358 0-.648.263-.648.587 0 .324.29.586.648.586H7.9l2.34 9.532c-.689.271-1.172.893-1.172 1.615 0 .97.872 1.76 1.944 1.76H22.76c.358 0 .648-.263.648-.587 0-.324-.29-.586-.648-.586H11.012c-.358 0-.648-.264-.648-.587 0-.323.29-.586.646-.587zM24.493 8.92l-2.221 7.04h-10.74L9.803 8.92h14.69z"/>
              <path d="M10.364 21.24c0 .97.872 1.76 1.943 1.76 1.072 0 1.944-.79 1.944-1.76s-.872-1.76-1.944-1.76c-1.071 0-1.943.79-1.943 1.76zm1.943-.587c.358 0 .648.264.648.587 0 .323-.29.587-.648.587-.357 0-.647-.264-.647-.587 0-.323.29-.587.647-.587z"/>
              <path d="M19.52 21.24c0 .97.873 1.76 1.945 1.76 1.071 0 1.943-.79 1.943-1.76s-.872-1.76-1.943-1.76c-1.072 0-1.944.79-1.944 1.76zm1.945-.587c.357 0 .648.264.648.587 0 .323-.291.587-.648.587-.358 0-.648-.264-.648-.587 0-.323.29-.587.648-.587z"/>
            </g>
            <g>
              <path d="M8.2 1C4.23 1 1 3.956 1 7.59c0 3.633 3.23 6.59 7.2 6.59s7.2-2.957 7.2-6.59C15.4 3.956 12.17 1 8.2 1z" stroke="#BF883B" fill="#BF883B"/>
              <path fill="#FFF" d="M8.65 4.295h-.9v2.883H4.6V8h3.15v2.883h.9V8.001h3.15v-.823H8.65z"/>
            </g>
          </g>
        </g>
      </g>
    </g>
  </g>
</svg>
