<?xml version="1.0" encoding="UTF-8"?>
<svg width="22px" height="20px" viewBox="0 0 22 20" version="1.1" xmlns="http://www.w3.org/2000/svg" xmlns:xlink="http://www.w3.org/1999/xlink">
    <title>Ulubione</title>
    <g id="UI" stroke="none" stroke-width="1" fill="none" fill-rule="evenodd">
        <g id="Regulamin-sklepu" transform="translate(-1575.000000, -56.000000)" fill="#000000" fill-rule="nonzero">
            <path d="M1586,76 C1585.6868,76 1585.38484,75.88406 1585.14952,75.673447 C1584.26077,74.8793606 1583.40392,74.1331252 1582.64793,73.4748739 L1582.64407,73.4714438 C1580.42766,71.5414537 1578.5137,69.8747299 1577.18201,68.2328748 C1575.69337,66.3973862 1575,64.657085 1575,62.7559085 C1575,60.9087572 1575.61986,59.2046445 1576.74527,57.95726 C1577.88411,56.6951257 1579.44676,56 1581.14587,56 C1582.4158,56 1583.57881,56.4102494 1584.60251,57.219257 C1585.11914,57.6276198 1585.58743,58.1273968 1586,58.7103557 C1586.41273,58.1273968 1586.88086,57.6276198 1587.39766,57.219257 C1588.42136,56.4102494 1589.58437,56 1590.85429,56 C1592.55324,56 1594.11606,56.6951257 1595.2549,57.95726 C1596.38031,59.2046445 1597,60.9087572 1597,62.7559085 C1597,64.657085 1596.30679,66.3973862 1594.81816,68.2327033 C1593.48647,69.8747299 1591.57268,71.5412822 1589.3566,73.4711008 C1588.59927,74.1303811 1587.74107,74.877817 1586.85031,75.67379 C1586.61516,75.88406 1586.31303,76 1586,76 L1586,76 Z M1581.14587,57.3168456 C1579.81099,57.3168456 1578.5847,57.861215 1577.6926,58.8497925 C1576.78723,59.8532913 1576.28856,61.2404555 1576.28856,62.7559085 C1576.28856,64.3548863 1576.87015,65.7849278 1578.17415,67.3926525 C1579.43451,68.946695 1581.30919,70.5791171 1583.47978,72.469317 L1583.48381,72.4727473 C1584.24265,73.1335712 1585.10286,73.8827222 1585.99815,74.6826399 C1586.89882,73.8811786 1587.76038,73.130827 1588.52072,72.468974 C1590.69115,70.5787741 1592.56566,68.946695 1593.82602,67.3926525 C1595.12985,65.7849278 1595.71144,64.3548863 1595.71144,62.7559085 C1595.71144,61.2404555 1595.21277,59.8532913 1594.3074,58.8497925 C1593.41547,57.861215 1592.18901,57.3168456 1590.85429,57.3168456 C1589.87642,57.3168456 1588.97861,57.6344801 1588.18587,58.2608308 C1587.4794,58.8192639 1586.98727,59.5251946 1586.69875,60.0191404 C1586.55037,60.2731451 1586.2892,60.424759 1586,60.424759 C1585.7108,60.424759 1585.44963,60.2731451 1585.30125,60.0191404 C1585.01289,59.5251946 1584.52077,58.8192639 1583.81413,58.2608308 C1583.02139,57.6344801 1582.12358,57.3168456 1581.14587,57.3168456 Z" id="Ulubione"></path>
        </g>
    </g>
</svg>