<svg id="Layer_1" data-name="Layer 1" xmlns="http://www.w3.org/2000/svg" viewBox="0 0 362.33 286.11"><defs><style>.cls-1{fill:#58595b;}</style></defs><path class="cls-1" d="M7.89,186.56H32a35.77,35.77,0,0,1,13.86,2.56,30.39,30.39,0,0,1,10.5,7.07A31.16,31.16,0,0,1,63,206.83a37.23,37.23,0,0,1,2.31,13.25,40.67,40.67,0,0,1-2.17,13.53,30.27,30.27,0,0,1-6.35,10.74,29.25,29.25,0,0,1-10.26,7.08A35.29,35.29,0,0,1,32.74,254H7.89Zm24.85,60a27.4,27.4,0,0,0,10.59-1.92,21,21,0,0,0,7.75-5.43,23.69,23.69,0,0,0,4.77-8.41A33.89,33.89,0,0,0,57.49,220a30.16,30.16,0,0,0-1.74-10.43,23.5,23.5,0,0,0-5-8.22,23.05,23.05,0,0,0-8-5.43A27.82,27.82,0,0,0,32,194H15.69v52.58Z" transform="translate(-7.87 -11.52)"/><path class="cls-1" d="M100.25,194v20.7H132.8v7.42H100.25v24.46h35.54V254H92.45V186.56h43.34V194Z" transform="translate(-7.87 -11.52)"/><path class="cls-1" d="M181.83,247.62a19.81,19.81,0,0,0,5.3-.72,15.28,15.28,0,0,0,4.62-2.12,10.63,10.63,0,0,0,3.22-3.46,9.49,9.49,0,0,0,1.21-4.87,9.1,9.1,0,0,0-1.3-5,12.5,12.5,0,0,0-3.66-3.66,27.72,27.72,0,0,0-5.64-2.84c-2.18-.84-4.56-1.7-7.12-2.6q-4.25-1.44-7.8-3a26.55,26.55,0,0,1-6.17-3.76,15.27,15.27,0,0,1-4-5.2A16.93,16.93,0,0,1,159,203a16.13,16.13,0,0,1,1.32-6.31,15.87,15.87,0,0,1,4-5.58,20.53,20.53,0,0,1,6.82-4A28.08,28.08,0,0,1,181,185.6a26.24,26.24,0,0,1,7.85,1.15,21.57,21.57,0,0,1,6.6,3.33A19.91,19.91,0,0,1,203,202.26h-7.71a10.88,10.88,0,0,0-4.81-6.89,16.92,16.92,0,0,0-9.54-2.55,19.4,19.4,0,0,0-6.31.92,14,14,0,0,0-4.38,2.35,9.81,9.81,0,0,0-2.6,3.28,8.28,8.28,0,0,0-.87,3.56,9,9,0,0,0,1.11,4.67,10.63,10.63,0,0,0,3.08,3.28,22,22,0,0,0,4.67,2.45q2.7,1.06,5.88,2.12,5,1.74,9.1,3.52a32,32,0,0,1,7.08,4.14,17.16,17.16,0,0,1,4.62,5.49,15.92,15.92,0,0,1,1.64,7.46,17,17,0,0,1-1.85,8.05,17.88,17.88,0,0,1-5,5.92,22.1,22.1,0,0,1-7.15,3.61,28.55,28.55,0,0,1-8.33,1.21,30.62,30.62,0,0,1-8.86-1.21,23.45,23.45,0,0,1-7.08-3.37A18.62,18.62,0,0,1,158,238.09h7.7a10.81,10.81,0,0,0,5.11,7.08C173.54,246.8,177.21,247.62,181.83,247.62Z" transform="translate(-7.87 -11.52)"/><path class="cls-1" d="M242.89,194v20.7h32.55v7.42H242.89v24.46h35.54V254H235.09V186.56h43.34V194Z" transform="translate(-7.87 -11.52)"/><path class="cls-1" d="M302.11,220.27a34.77,34.77,0,0,1,20.71-31.93,33.48,33.48,0,0,1,26.53,0,34.42,34.42,0,0,1,10.84,7.47,35.61,35.61,0,0,1,7.32,11,34.93,34.93,0,0,1,0,26.93,35.73,35.73,0,0,1-7.32,11,33.79,33.79,0,0,1-10.84,7.42,33.94,33.94,0,0,1-26.53,0A34,34,0,0,1,312,244.73a34.92,34.92,0,0,1-7.28-11A34.39,34.39,0,0,1,302.11,220.27Zm7.81-.05A27.49,27.49,0,0,0,312,230.94a28.39,28.39,0,0,0,5.58,8.66,25.13,25.13,0,0,0,8.28,5.76,25.86,25.86,0,0,0,28.85-5.76,27.82,27.82,0,0,0,5.64-8.66,28.79,28.79,0,0,0,0-21.44,27.09,27.09,0,0,0-5.64-8.6,26.41,26.41,0,0,0-8.33-5.77,26,26,0,0,0-20.52,0,26.09,26.09,0,0,0-8.28,5.77,27.68,27.68,0,0,0-7.65,19.32Z" transform="translate(-7.87 -11.52)"/><path class="cls-1" d="M10.77,297.3H7.87v-25h9.47a13.3,13.3,0,0,1,3.32.41A7.38,7.38,0,0,1,23.37,274a6.55,6.55,0,0,1,1.83,2.36,8.28,8.28,0,0,1,.67,3.52,7.87,7.87,0,0,1-.64,3.32,6,6,0,0,1-1.79,2.28,7.42,7.42,0,0,1-2.69,1.31,13.23,13.23,0,0,1-3.34.41H10.77Zm6.64-12.71a9.4,9.4,0,0,0,2.16-.25,5,5,0,0,0,1.77-.81,3.89,3.89,0,0,0,1.19-1.46,5,5,0,0,0,.45-2.23,5.28,5.28,0,0,0-.43-2.25,3.84,3.84,0,0,0-1.18-1.5,5,5,0,0,0-1.78-.84,8.9,8.9,0,0,0-2.25-.27H10.77v9.61Z" transform="translate(-7.87 -11.52)"/><path class="cls-1" d="M27.16,286.87a5.15,5.15,0,0,1,2-3,6.76,6.76,0,0,1,4.11-1.19,6.5,6.5,0,0,1,4.48,1.43,4.73,4.73,0,0,1,1.63,3.75v9.46H37l-.17-2.18a5.63,5.63,0,0,1-1.79,1.66,6,6,0,0,1-3.18.7,7,7,0,0,1-2.1-.3,4.84,4.84,0,0,1-1.68-.9A4.15,4.15,0,0,1,27,294.85a4.32,4.32,0,0,1-.41-1.91c0-3,2.26-4.57,6.79-4.57h3.5v-.54a2.79,2.79,0,0,0-.9-2.16,3.82,3.82,0,0,0-2.71-.83,4.29,4.29,0,0,0-2.29.55,2.62,2.62,0,0,0-1.17,1.48Zm5.18,8.43a5,5,0,0,0,3.26-1,3.73,3.73,0,0,0,1.24-3v-.82h-3.5a6.33,6.33,0,0,0-3.23.62,2.08,2.08,0,0,0-1,1.88,2,2,0,0,0,.88,1.76A3.91,3.91,0,0,0,32.34,295.3Z" transform="translate(-7.87 -11.52)"/><path class="cls-1" d="M42.23,283h3l.5-5.07h2.14V283H52.3v2.43H47.87v7.21a2.51,2.51,0,0,0,.63,2,3,3,0,0,0,1.83.48,10.18,10.18,0,0,0,2.15-.21v2.28a9,9,0,0,1-2.61.36,7.14,7.14,0,0,1-1.82-.23,3.65,3.65,0,0,1-1.48-.79,3.91,3.91,0,0,1-1-1.44,5.78,5.78,0,0,1-.38-2.22v-7.49h-3Z" transform="translate(-7.87 -11.52)"/><path class="cls-1" d="M55.76,277.34a1.78,1.78,0,0,1,.5-1.27,1.72,1.72,0,0,1,1.29-.52,1.78,1.78,0,0,1,1.29.52,1.79,1.79,0,0,1,0,2.54,1.81,1.81,0,0,1-1.29.51,1.75,1.75,0,0,1-1.29-.51A1.78,1.78,0,0,1,55.76,277.34Zm.47,5.68h2.68V297.3H56.23Z" transform="translate(-7.87 -11.52)"/><path class="cls-1" d="M68.33,295.44a4.27,4.27,0,0,0,2.09-.48,1.61,1.61,0,0,0,.88-1.52,1.56,1.56,0,0,0-.27-.94,2.44,2.44,0,0,0-.75-.66,4.69,4.69,0,0,0-1.13-.49c-.42-.13-.9-.25-1.42-.37a11.07,11.07,0,0,1-1.77-.56,5.56,5.56,0,0,1-1.46-.83,4,4,0,0,1-1-1.22,3.6,3.6,0,0,1-.37-1.71,3.8,3.8,0,0,1,.32-1.52,3.76,3.76,0,0,1,1-1.29A4.85,4.85,0,0,1,66,283a6.91,6.91,0,0,1,2.16-.32,6.38,6.38,0,0,1,2.17.34,5.26,5.26,0,0,1,1.62.89A4.48,4.48,0,0,1,73,285.14a5,5,0,0,1,.54,1.45h-2.5a2.54,2.54,0,0,0-.82-1.2,3,3,0,0,0-2-.55,3.08,3.08,0,0,0-1.93.53,1.67,1.67,0,0,0-.68,1.36,1.53,1.53,0,0,0,.86,1.43,11,11,0,0,0,2.39.86,13.12,13.12,0,0,1,1.82.55,6.33,6.33,0,0,1,1.59.85,4.26,4.26,0,0,1,1.11,1.25,4.09,4.09,0,0,1,0,3.61,3.92,3.92,0,0,1-1.18,1.29,5.58,5.58,0,0,1-1.73.78,7.87,7.87,0,0,1-2.09.27,6.12,6.12,0,0,1-3.8-1.1,4.47,4.47,0,0,1-1.77-2.83h2.43a2.24,2.24,0,0,0,.92,1.22A3.72,3.72,0,0,0,68.33,295.44Z" transform="translate(-7.87 -11.52)"/><path class="cls-1" d="M81.9,295.44A4.27,4.27,0,0,0,84,295a1.61,1.61,0,0,0,.88-1.52,1.56,1.56,0,0,0-.27-.94,2.44,2.44,0,0,0-.75-.66,4.69,4.69,0,0,0-1.13-.49c-.42-.13-.9-.25-1.42-.37a11.07,11.07,0,0,1-1.77-.56,5.56,5.56,0,0,1-1.46-.83,4,4,0,0,1-1-1.22,3.6,3.6,0,0,1-.37-1.71,3.8,3.8,0,0,1,.32-1.52,3.66,3.66,0,0,1,1-1.29,4.69,4.69,0,0,1,1.58-.87,6.91,6.91,0,0,1,2.16-.32,6.38,6.38,0,0,1,2.17.34,5.26,5.26,0,0,1,1.62.89,4.48,4.48,0,0,1,1.07,1.25,5,5,0,0,1,.54,1.45h-2.5a2.54,2.54,0,0,0-.82-1.2,3,3,0,0,0-2-.55,3.08,3.08,0,0,0-1.93.53,1.67,1.67,0,0,0-.68,1.36,1.52,1.52,0,0,0,.86,1.43,11,11,0,0,0,2.39.86,13.12,13.12,0,0,1,1.82.55,6.33,6.33,0,0,1,1.59.85A4.26,4.26,0,0,1,87,291.67a4.09,4.09,0,0,1,0,3.61,3.92,3.92,0,0,1-1.18,1.29,5.58,5.58,0,0,1-1.73.78,7.87,7.87,0,0,1-2.09.27,6.12,6.12,0,0,1-3.8-1.1,4.47,4.47,0,0,1-1.77-2.83H78.8a2.24,2.24,0,0,0,.92,1.22A3.72,3.72,0,0,0,81.9,295.44Z" transform="translate(-7.87 -11.52)"/><path class="cls-1" d="M92.33,291.12a4.45,4.45,0,0,0,1.45,3.11,5.08,5.08,0,0,0,3.48,1.11,4.65,4.65,0,0,0,2.68-.7,3.31,3.31,0,0,0,1.32-1.73h2.57a5.91,5.91,0,0,1-2.21,3.39,7,7,0,0,1-4.4,1.32,7.72,7.72,0,0,1-3-.59,7.22,7.22,0,0,1-2.36-1.59,7.05,7.05,0,0,1-1.52-2.35,8.31,8.31,0,0,1,0-5.84,7.17,7.17,0,0,1,6.79-4.59,7,7,0,0,1,2.91.59,6.63,6.63,0,0,1,2.22,1.59,7.26,7.26,0,0,1,1.4,2.27,6.82,6.82,0,0,1,.51,2.58v.73a2.75,2.75,0,0,1-.08.7Zm4.86-6.18A4.51,4.51,0,0,0,94,286.09a4.91,4.91,0,0,0-1.52,3h9.1a4.3,4.3,0,0,0-.34-1.53,3.93,3.93,0,0,0-.85-1.33,4.11,4.11,0,0,0-1.36-.91A4.69,4.69,0,0,0,97.19,284.94Z" transform="translate(-7.87 -11.52)"/><path class="cls-1" d="M108,283h2.43l.25,2c.21-.21.45-.45.73-.7a5.2,5.2,0,0,1,1-.71,5.76,5.76,0,0,1,1.32-.56,6,6,0,0,1,1.77-.24l.59,0a2.9,2.9,0,0,1,.59.09v2.43a4.26,4.26,0,0,0-1-.11,6.15,6.15,0,0,0-1.71.23,5.93,5.93,0,0,0-2.47,1.43,8.24,8.24,0,0,0-.78.83v9.58H108Z" transform="translate(-7.87 -11.52)"/><path class="cls-1" d="M119.29,277.34a1.78,1.78,0,0,1,.5-1.27,1.7,1.7,0,0,1,1.29-.52,1.74,1.74,0,0,1,1.28.52,1.76,1.76,0,0,1,0,2.54,1.77,1.77,0,0,1-1.28.51,1.73,1.73,0,0,1-1.29-.51A1.78,1.78,0,0,1,119.29,277.34Zm.47,5.68h2.67V297.3h-2.67Z" transform="translate(-7.87 -11.52)"/><path class="cls-1" d="M129.18,291.12a4.45,4.45,0,0,0,1.45,3.11,5.12,5.12,0,0,0,3.48,1.11,4.65,4.65,0,0,0,2.68-.7,3.22,3.22,0,0,0,1.32-1.73h2.57a5.91,5.91,0,0,1-2.21,3.39,7,7,0,0,1-4.39,1.32A7.77,7.77,0,0,1,131,297a7.18,7.18,0,0,1-2.35-1.59,6.9,6.9,0,0,1-1.52-2.35,8.16,8.16,0,0,1,0-5.84,7.08,7.08,0,0,1,3.84-4,7.25,7.25,0,0,1,2.94-.59,7,7,0,0,1,2.91.59,6.63,6.63,0,0,1,2.22,1.59,7.1,7.1,0,0,1,1.41,2.27,7,7,0,0,1,.5,2.58v.73a3.36,3.36,0,0,1-.07.7Zm4.86-6.18a4.53,4.53,0,0,0-3.23,1.15,5,5,0,0,0-1.52,3h9.11a4.78,4.78,0,0,0-.34-1.53,4,4,0,0,0-.86-1.33,4.11,4.11,0,0,0-1.36-.91A4.66,4.66,0,0,0,134,284.94Z" transform="translate(-7.87 -11.52)"/><path class="cls-1" d="M152.43,290.84a6.43,6.43,0,0,1,.39-2.31,7.66,7.66,0,0,1,1.06-1.87,9.33,9.33,0,0,1,1.52-1.56c.57-.46,1.16-.89,1.78-1.3-.36-.36-.73-.76-1.12-1.21a9,9,0,0,1-1.82-3.2,5.79,5.79,0,0,1-.31-1.91,5.18,5.18,0,0,1,.36-1.79,5.56,5.56,0,0,1,1.12-1.8,6.17,6.17,0,0,1,2-1.39,7.85,7.85,0,0,1,5.59-.07,5.49,5.49,0,0,1,1.89,1.28,5.36,5.36,0,0,1,1.12,1.84,6.28,6.28,0,0,1,.38,2.15,5,5,0,0,1-.45,2.16,6.45,6.45,0,0,1-1.18,1.71,10.71,10.71,0,0,1-1.67,1.43c-.64.44-1.28.86-1.95,1.27l6.25,6.71a9.16,9.16,0,0,0,.93-2.29,11.22,11.22,0,0,0,.32-2.75V283h2.75v2.92a13,13,0,0,1-.56,3.84,11.6,11.6,0,0,1-1.55,3.27l3.93,4.25h-3.43l-2.14-2.25a8.77,8.77,0,0,1-3,1.89,10.62,10.62,0,0,1-4,.68,9.63,9.63,0,0,1-3.34-.55,8.25,8.25,0,0,1-2.59-1.48,6.65,6.65,0,0,1-1.68-2.17A5.69,5.69,0,0,1,152.43,290.84Zm8.22,4.35a7.27,7.27,0,0,0,2.94-.55,6.21,6.21,0,0,0,2.16-1.52l-6.85-7.43a12.41,12.41,0,0,0-2.59,2.18,4.31,4.31,0,0,0-1.09,3,3.39,3.39,0,0,0,.43,1.68,4.38,4.38,0,0,0,1.17,1.38,5.78,5.78,0,0,0,1.74.92A6.23,6.23,0,0,0,160.65,295.19Zm-1.26-12.78c.51-.31,1-.64,1.52-1a10.29,10.29,0,0,0,1.36-1.09,5.72,5.72,0,0,0,1-1.22,2.71,2.71,0,0,0,.38-1.39,3.87,3.87,0,0,0-.2-1.2,3.05,3.05,0,0,0-.6-1,3.09,3.09,0,0,0-1-.75,3.55,3.55,0,0,0-1.48-.29,4.13,4.13,0,0,0-1.61.29,3.2,3.2,0,0,0-1.11.75,3.27,3.27,0,0,0-.64,1,2.76,2.76,0,0,0-.21,1,4.93,4.93,0,0,0,.66,2.48A11,11,0,0,0,159.39,282.41Z" transform="translate(-7.87 -11.52)"/><path class="cls-1" d="M183.68,284.8a12.64,12.64,0,0,1,1-5,13.07,13.07,0,0,1,2.68-4.09,12.52,12.52,0,0,1,4-2.77,12,12,0,0,1,4.94-1,12.91,12.91,0,0,1,4.16.64,12.48,12.48,0,0,1,3.43,1.76,12,12,0,0,1,2.61,2.7,13.47,13.47,0,0,1,1.7,3.39h-3.11a9,9,0,0,0-3.11-4,9,9,0,0,0-2.52-1.27,9.82,9.82,0,0,0-3.09-.46,9.5,9.5,0,0,0-3.85.78,9.69,9.69,0,0,0-5.18,5.34,10.41,10.41,0,0,0-.75,4,10.58,10.58,0,0,0,.75,4,9.64,9.64,0,0,0,5.18,5.36,9.5,9.5,0,0,0,3.85.78,9.87,9.87,0,0,0,3.13-.48,9.27,9.27,0,0,0,2.57-1.3,8.61,8.61,0,0,0,1.91-1.9,8,8,0,0,0,1.18-2.28h3.11a11.79,11.79,0,0,1-4.29,6.21,12.19,12.19,0,0,1-3.48,1.79,13.29,13.29,0,0,1-4.2.64,12.19,12.19,0,0,1-4.94-1,12.31,12.31,0,0,1-4-2.75,13,13,0,0,1-2.68-4.07A12.6,12.6,0,0,1,183.68,284.8Z" transform="translate(-7.87 -11.52)"/><path class="cls-1" d="M212.17,274h2.68v10.86a8.71,8.71,0,0,1,2-1.47,6.64,6.64,0,0,1,3.22-.71,6.35,6.35,0,0,1,2.3.41,4.83,4.83,0,0,1,1.8,1.2,5.32,5.32,0,0,1,1.16,1.89,7,7,0,0,1,.41,2.5v8.64h-2.67v-8.22a4.38,4.38,0,0,0-.91-3,3.41,3.41,0,0,0-2.7-1,4.88,4.88,0,0,0-2.82.78,7.28,7.28,0,0,0-1.79,1.68v9.75h-2.68Z" transform="translate(-7.87 -11.52)"/><path class="cls-1" d="M229.57,290.16a7.65,7.65,0,0,1,.55-2.91,7.21,7.21,0,0,1,1.56-2.4,7.44,7.44,0,0,1,2.34-1.6,7.44,7.44,0,0,1,8.25,1.6,7.21,7.21,0,0,1,1.56,2.4,7.89,7.89,0,0,1,0,5.84,7,7,0,0,1-1.56,2.35,7.46,7.46,0,0,1-2.34,1.59,7.7,7.7,0,0,1-5.91,0,7.58,7.58,0,0,1-2.34-1.59,7,7,0,0,1-1.56-2.35A7.68,7.68,0,0,1,229.57,290.16Zm2.67,0a5.68,5.68,0,0,0,.36,2.06,4.64,4.64,0,0,0,1,1.57,4.57,4.57,0,0,0,1.49,1,4.79,4.79,0,0,0,5.27-1,4.77,4.77,0,0,0,1-1.57,6,6,0,0,0,0-4.1,4.75,4.75,0,0,0-1-1.61,4.62,4.62,0,0,0-3.38-1.42,4.65,4.65,0,0,0-1.89.37,4.48,4.48,0,0,0-1.49,1.05,4.62,4.62,0,0,0-1,1.61A5.68,5.68,0,0,0,232.24,290.16Z" transform="translate(-7.87 -11.52)"/><path class="cls-1" d="M254.85,285.09a5,5,0,0,0-1.93.37,4.66,4.66,0,0,0-1.53,1,4.58,4.58,0,0,0-1,1.6,6.08,6.08,0,0,0,0,4.15,4.93,4.93,0,0,0,1,1.6,4.73,4.73,0,0,0,1.52,1,4.79,4.79,0,0,0,1.91.38,4.74,4.74,0,0,0,2.72-.74,3.76,3.76,0,0,0,1.46-1.8h2.64a6.2,6.2,0,0,1-.84,2,5.46,5.46,0,0,1-1.48,1.55,6.87,6.87,0,0,1-2,1,8.24,8.24,0,0,1-2.47.36,7.59,7.59,0,0,1-3-.59,7.26,7.26,0,0,1-2.37-1.59,7,7,0,0,1-1.56-2.35,7.89,7.89,0,0,1,0-5.84,7.24,7.24,0,0,1,3.91-4,7.47,7.47,0,0,1,3-.59,7.83,7.83,0,0,1,2.46.37,7.27,7.27,0,0,1,2,1,6,6,0,0,1,1.48,1.57,6.43,6.43,0,0,1,.84,2H259a3.79,3.79,0,0,0-1.45-1.8A4.54,4.54,0,0,0,254.85,285.09Z" transform="translate(-7.87 -11.52)"/><path class="cls-1" d="M263.85,290.16a7.65,7.65,0,0,1,.56-2.91,7.48,7.48,0,0,1,9.81-4,7.44,7.44,0,0,1,2.34,1.6,7.21,7.21,0,0,1,1.56,2.4,8,8,0,0,1,0,5.84,7,7,0,0,1-1.56,2.35,7.58,7.58,0,0,1-2.34,1.59,7.7,7.7,0,0,1-5.91,0,7.5,7.5,0,0,1-2.35-1.59,7.13,7.13,0,0,1-1.55-2.35A7.68,7.68,0,0,1,263.85,290.16Zm2.68,0a5.9,5.9,0,0,0,.35,2.06,4.79,4.79,0,0,0,1,1.57,4.72,4.72,0,0,0,1.5,1,4.61,4.61,0,0,0,1.88.37,4.61,4.61,0,0,0,4.38-3,6.18,6.18,0,0,0,0-4.1,4.62,4.62,0,0,0-1-1.61,4.56,4.56,0,0,0-1.51-1.05,4.66,4.66,0,0,0-1.87-.37,4.53,4.53,0,0,0-3.38,1.42,4.77,4.77,0,0,0-1,1.61A5.91,5.91,0,0,0,266.53,290.16Z" transform="translate(-7.87 -11.52)"/><path class="cls-1" d="M285.45,297.3h-2.67V274h2.67Z" transform="translate(-7.87 -11.52)"/><path class="cls-1" d="M290.13,286.87a5.22,5.22,0,0,1,2-3,6.74,6.74,0,0,1,4.11-1.19,6.53,6.53,0,0,1,4.48,1.43,4.75,4.75,0,0,1,1.62,3.75v9.46H300l-.18-2.18a5.53,5.53,0,0,1-1.79,1.66,6,6,0,0,1-3.18.7,7,7,0,0,1-2.1-.3,5,5,0,0,1-1.68-.9,4.27,4.27,0,0,1-1.13-1.43,4.32,4.32,0,0,1-.41-1.91c0-3,2.27-4.57,6.79-4.57h3.5v-.54a2.82,2.82,0,0,0-.89-2.16,3.85,3.85,0,0,0-2.72-.83,4.23,4.23,0,0,0-2.28.55,2.59,2.59,0,0,0-1.18,1.48Zm5.18,8.43a5,5,0,0,0,3.27-1,3.73,3.73,0,0,0,1.23-3v-.82h-3.5a6.33,6.33,0,0,0-3.23.62,2.07,2.07,0,0,0-1,1.88,2,2,0,0,0,.87,1.76A3.91,3.91,0,0,0,295.31,295.3Z" transform="translate(-7.87 -11.52)"/><path class="cls-1" d="M305.2,283h3l.5-5.07h2.14V283h4.44v2.43h-4.44v7.21a2.51,2.51,0,0,0,.63,2,3,3,0,0,0,1.84.48,10,10,0,0,0,2.14-.21v2.28a8.83,8.83,0,0,1-2.6.36,7.09,7.09,0,0,1-1.82-.23,3.69,3.69,0,0,1-1.49-.79,3.91,3.91,0,0,1-1-1.44,5.79,5.79,0,0,1-.37-2.22v-7.49h-3Z" transform="translate(-7.87 -11.52)"/><path class="cls-1" d="M320.13,291.12a4.45,4.45,0,0,0,1.45,3.11,5.08,5.08,0,0,0,3.48,1.11,4.65,4.65,0,0,0,2.68-.7,3.31,3.31,0,0,0,1.32-1.73h2.57a5.88,5.88,0,0,1-2.22,3.39,7,7,0,0,1-4.39,1.32,7.72,7.72,0,0,1-3-.59,7.22,7.22,0,0,1-2.36-1.59,6.88,6.88,0,0,1-1.51-2.35,8.16,8.16,0,0,1,0-5.84,7.09,7.09,0,0,1,1.51-2.4,7.17,7.17,0,0,1,2.33-1.6,7.25,7.25,0,0,1,2.94-.59,7,7,0,0,1,2.91.59,6.63,6.63,0,0,1,2.22,1.59,7.47,7.47,0,0,1,1.41,2.27,7,7,0,0,1,.5,2.58v.73a2.75,2.75,0,0,1-.08.7Zm4.86-6.18a4.55,4.55,0,0,0-3.24,1.15,5,5,0,0,0-1.51,3h9.11a4.54,4.54,0,0,0-.35-1.53,3.93,3.93,0,0,0-.85-1.33,4.11,4.11,0,0,0-1.36-.91A4.73,4.73,0,0,0,325,284.94Z" transform="translate(-7.87 -11.52)"/><path class="cls-1" d="M335.81,283h2.43l.25,2,.73-.7a5.2,5.2,0,0,1,1-.71,5.76,5.76,0,0,1,1.32-.56,6,6,0,0,1,1.77-.24l.59,0a2.9,2.9,0,0,1,.59.09v2.43a4.26,4.26,0,0,0-1-.11,6.15,6.15,0,0,0-1.71.23,5.93,5.93,0,0,0-2.47,1.43,8.24,8.24,0,0,0-.78.83v9.58h-2.68Z" transform="translate(-7.87 -11.52)"/><path class="cls-1" d="M347.09,277.34a1.78,1.78,0,0,1,.5-1.27,1.69,1.69,0,0,1,1.29-.52,1.74,1.74,0,0,1,1.28.52,1.76,1.76,0,0,1,0,2.54,1.77,1.77,0,0,1-1.28.51,1.72,1.72,0,0,1-1.29-.51A1.78,1.78,0,0,1,347.09,277.34Zm.47,5.68h2.67V297.3h-2.67Z" transform="translate(-7.87 -11.52)"/><path class="cls-1" d="M357,291.12a4.45,4.45,0,0,0,1.45,3.11,5.08,5.08,0,0,0,3.48,1.11,4.65,4.65,0,0,0,2.68-.7,3.22,3.22,0,0,0,1.32-1.73h2.57a5.91,5.91,0,0,1-2.21,3.39,7,7,0,0,1-4.39,1.32,7.77,7.77,0,0,1-3.06-.59,7.07,7.07,0,0,1-2.35-1.59,6.76,6.76,0,0,1-1.52-2.35,8.16,8.16,0,0,1,0-5.84,7.08,7.08,0,0,1,3.84-4,7.25,7.25,0,0,1,2.94-.59,7,7,0,0,1,2.91.59,6.63,6.63,0,0,1,2.22,1.59,7.47,7.47,0,0,1,1.41,2.27,7,7,0,0,1,.5,2.58v.73a3.36,3.36,0,0,1-.07.7Zm4.86-6.18a4.53,4.53,0,0,0-3.23,1.15,5,5,0,0,0-1.52,3h9.11a4.78,4.78,0,0,0-.34-1.53,4,4,0,0,0-2.22-2.24A4.66,4.66,0,0,0,361.84,284.94Z" transform="translate(-7.87 -11.52)"/><path class="cls-1" d="M186.08,11.52a2.91,2.91,0,0,0-2.91,2.91l-.1,41.48c-3.44,4.77-20.31,29.21-20.38,49.81,0,10.89,2.15,18.37,6.7,22.88,4.78,4.73,11.23,5.33,16.31,5.34,5.57,0,9.72-.9,13-2.83a17.84,17.84,0,0,0,7.53-9c1.75-4.22,2.61-9.59,2.64-16.4.07-20.6-16.63-45-20-49.82l.1-41.48A2.89,2.89,0,0,0,186.08,11.52Zm1.23,116.23a3,3,0,0,1-1.59.35c-1.19,0-2.26-.21-3.33-2.73-1.48-3.51-2.22-10.12-2.18-19.65,0-13,3.25-28.13,5.72-37.87,2.4,9.74,5.5,24.89,5.46,37.87C191.36,113.09,190.8,125.74,187.31,127.75Zm-18.82-22c0-10.27,5-22,9.88-31.2-2,9.31-3.93,20.79-4,31.2,0,9.77.68,16.46,2.23,20.86a10.58,10.58,0,0,1-3.16-2.15C170.09,121.08,168.46,115,168.49,105.72Zm34.61,0c0,16.16-5.46,19.3-7.24,20.33-.33.18-.67.36-1,.52,1.6-4.45,2.33-11.16,2.36-20.86,0-10.41-1.79-21.9-3.76-31.21C198.3,83.7,203.14,95.44,203.1,105.73Z" transform="translate(-7.87 -11.52)"/><path class="cls-1" d="M204.07,63.22V70.3h32.64v31.47a54.51,54.51,0,0,1-3.79,20.68,45.42,45.42,0,0,1-26.61,26A56.37,56.37,0,0,1,186.12,152a61,61,0,0,1-20.76-3.38A46.8,46.8,0,0,1,149.22,139a43.13,43.13,0,0,1-10.55-15.41,53,53,0,0,1-3.79-20.51V70.3h32.64V63.22H128.13v39.87a59.37,59.37,0,0,0,4.36,23.23A51.68,51.68,0,0,0,144.6,144,52.61,52.61,0,0,0,163,155.24a67.19,67.19,0,0,0,23.15,3.87A61.46,61.46,0,0,0,208.78,155,54.71,54.71,0,0,0,227,143.38a52.7,52.7,0,0,0,12.12-18.13,61.25,61.25,0,0,0,4.36-23.48V63.22Z" transform="translate(-7.87 -11.52)"/></svg>