<svg xmlns="http://www.w3.org/2000/svg" width="24" height="21" viewBox="0 0 24 21"><g><g><g><path d="M22.365 4.25l-2.411 8.5H8.298l-1.875-8.5zM7.734 14.167h12.75c.314 0 .59-.21.676-.514l2.813-9.917a.713.713 0 0 0-.115-.62.702.702 0 0 0-.561-.283H6.11L5.608.555A.704.704 0 0 0 4.922 0H.703A.706.706 0 0 0 0 .708c0 .392.315.709.703.709h3.655l2.539 11.508a2.129 2.129 0 0 0-1.272 1.95A2.12 2.12 0 0 0 7.735 17h12.75a.706.706 0 0 0 .703-.708.706.706 0 0 0-.704-.709H7.734a.707.707 0 0 1-.703-.708c0-.39.315-.707.702-.708z"/></g><g><path d="M9.005 18.333a.673.673 0 1 1-.002 1.345.673.673 0 0 1 .002-1.345zM7 19c0 1.103.897 2 2 2s2-.897 2-2-.897-2-2-2-2 .897-2 2z"/></g><g><path d="M19.005 18.333a.673.673 0 1 1-.002 1.345.673.673 0 0 1 .002-1.345zM17 19c0 1.103.897 2 2 2s2-.897 2-2-.897-2-2-2-2 .897-2 2z"/></g></g></g></svg>