<svg xmlns="http://www.w3.org/2000/svg" width="20" height="21" viewBox="0 0 20 21"><g><g><g><path d="M10 10.5c-2.326 0-4.219-1.987-4.219-4.43 0-2.442 1.893-4.43 4.219-4.43 2.326 0 4.219 1.988 4.219 4.43 0 2.443-1.893 4.43-4.219 4.43zm7.071 3.075a9.906 9.906 0 0 0-3.8-2.502c1.515-1.096 2.51-2.93 2.51-5.003C15.781 2.723 13.188 0 10 0 6.812 0 4.219 2.723 4.219 6.07c0 2.074.995 3.907 2.51 5.003a9.906 9.906 0 0 0-3.8 2.502C1.04 15.56 0 18.195 0 21h1.563c0-4.885 3.785-8.86 8.437-8.86 4.652 0 8.438 3.975 8.438 8.86H20c0-2.805-1.04-5.441-2.929-7.425z"/></g></g></g></svg>