<svg xmlns="http://www.w3.org/2000/svg" width="30" height="20" viewBox="0 0 30 20"><g><g><g><path d="M28.684 16.853c0 1.031-.84 1.87-1.87 1.87H3.117c-1.031 0-1.87-.839-1.87-1.87V3.138c0-1.031.839-1.87 1.87-1.87h23.695c1.032 0 1.87.839 1.87 1.87v13.715zM26.823.02H3.119C1.399.02 0 1.42 0 3.139v13.723c0 1.72 1.4 3.12 3.119 3.12h23.704c1.719 0 3.118-1.4 3.118-3.12V3.14c0-1.72-1.4-3.119-3.118-3.119z"/></g><g><path d="M1.248 7.493V5.008h27.436v2.485zm28.07-3.733H.624A.624.624 0 0 0 0 4.384v3.742c0 .345.28.624.624.624h28.694c.344 0 .624-.28.624-.624V4.384a.624.624 0 0 0-.624-.624z"/></g><g><path d="M9.354 12.5h-4.99a.624.624 0 0 0 0 1.247h4.99a.624.624 0 0 0 0-1.247z"/></g><g><path d="M13.097 14.99H4.364a.624.624 0 0 0 0 1.248h8.733a.624.624 0 0 0 0-1.248z"/></g></g></g></svg>