<svg xmlns="http://www.w3.org/2000/svg" width="29" height="20" viewBox="0 0 29 20"><g><g><g><path d="M19.827 10.53V7.374h2.328l.986 3.158zm4.358.342l-1.315-4.21c-.065-.206-.228-.342-.411-.342h-3.07c-.243 0-.439.236-.439.526v4.21c0 .291.196.527.439.527h4.385a.423.423 0 0 0 .36-.226.616.616 0 0 0 .051-.485z"/></g><g><path d="M27.474 12.998h-1.421v1h1.42v1H21.79c-1.125.001-2.094.836-2.32 2H18V3.998h3.716c.985.004 1.867.649 2.215 1.621l2.151 6.054a.502.502 0 0 0 .181.24l1.21.852zm0 4H24.11a2.54 2.54 0 0 0-.439-1h3.802zm-5.685 2c-.784 0-1.42-.672-1.42-1.5 0-.829.636-1.5 1.42-1.5.785 0 1.422.671 1.422 1.5 0 .828-.637 1.5-1.422 1.5zM17.043 3H.947V1h16.096zm0 13.997H8.474c-.226-1.163-1.195-1.998-2.32-2H.948V4h16.096zm-10.885 2c-.785 0-1.421-.671-1.421-1.5 0-.828.636-1.5 1.42-1.5.786 0 1.422.672 1.422 1.5 0 .829-.636 1.5-1.421 1.5zm-2.32-2H.947v-1h3.327a2.54 2.54 0 0 0-.438 1zm24.372-4.915l-1.294-.91-2.095-5.903c-.489-1.363-1.724-2.265-3.105-2.27H18V.5C18 .225 17.788 0 17.526 0H.474A.487.487 0 0 0 0 .5v16.997c0 .276.212.5.474.5h3.363c.26 1.353 1.51 2.227 2.792 1.953.932-.2 1.66-.969 1.85-1.953h10.99c.26 1.353 1.51 2.227 2.792 1.953.932-.2 1.66-.969 1.85-1.953h3.836a.487.487 0 0 0 .474-.5v-4.999a.508.508 0 0 0-.21-.416z"/></g><g><path d="M8.42 14.74h7.368v1.053H8.42z"/></g></g></g></svg>